<svg width="1600" height="732" xmlns="http://www.w3.org/2000/svg"><g><path d="M-110,-63L-123,792L-118,695Z" fill="#97d6ae" stroke="#97d6ae"/><path d="M-110,-63L-118,695L-79,63Z" fill="#dffff9" stroke="#dffff9"/><path d="M-110,-63L-79,63L52,-121Z" fill="#feffff" stroke="#feffff"/><path d="M52,-121L-79,63L119,18Z" fill="#fafdfe" stroke="#fafdfe"/><path d="M52,-121L119,18L255,-19Z" fill="#f4fbfd" stroke="#f4fbfd"/><path d="M52,-121L255,-19L316,-102Z" fill="#f0f9fb" stroke="#f0f9fb"/><path d="M52,-121L316,-102L831,-112Z" fill="#dff3ef" stroke="#dff3ef"/><path d="M52,-121L831,-112L1277,-128Z" fill="#b2e0d1" stroke="#b2e0d1"/><path d="M255,-19L119,18L275,81Z" fill="#f0f9fa" stroke="#f0f9fa"/><path d="M255,-19L275,81L427,50Z" fill="#e8f7f5" stroke="#e8f7f5"/><path d="M255,-19L427,50L316,-102Z" fill="#e7f6f4" stroke="#e7f6f4"/><path d="M316,-102L427,50L583,-68Z" fill="#d9f1ec" stroke="#d9f1ec"/><path d="M316,-102L583,-68L831,-112Z" fill="#c6e9e0" stroke="#c6e9e0"/><path d="M583,-68L427,50L553,64Z" fill="#ceece5" stroke="#ceece5"/><path d="M583,-68L553,64L671,-31Z" fill="#c2e7dd" stroke="#c2e7dd"/><path d="M583,-68L671,-31L831,-112Z" fill="#b5e2d3" stroke="#b5e2d3"/><path d="M671,-31L553,64L691,93Z" fill="#bde5d9" stroke="#bde5d9"/><path d="M671,-31L691,93L842,100Z" fill="#b0dfcf" stroke="#b0dfcf"/><path d="M671,-31L842,100L831,-112Z" fill="#abddc9" stroke="#abddc9"/><path d="M831,-112L842,100L922,-69Z" fill="#a3d8be" stroke="#a3d8be"/><path d="M831,-112L922,-69L1083,-109Z" fill="#9bd1b3" stroke="#9bd1b3"/><path d="M831,-112L1083,-109L1277,-128Z" fill="#92c6a3" stroke="#92c6a3"/><path d="M922,-69L842,100L1000,122Z" fill="#9ed4b6" stroke="#9ed4b6"/><path d="M922,-69L1000,122L1101,69Z" fill="#96cbaa" stroke="#96cbaa"/><path d="M922,-69L1101,69L1083,-109Z" fill="#94c8a7" stroke="#94c8a7"/><path d="M1083,-109L1101,69L1277,-128Z" fill="#89be9c" stroke="#89be9c"/><path d="M1277,-128L1101,69L1321,39Z" fill="#81b797" stroke="#81b797"/><path d="M1277,-128L1321,39L1454,-56Z" fill="#80aa91" stroke="#80aa91"/><path d="M1277,-128L1454,-56L1547,-103Z" fill="#80a18d" stroke="#80a18d"/><path d="M1454,-56L1321,39L1445,18Z" fill="#80a48e" stroke="#80a48e"/><path d="M1454,-56L1445,18L1550,43Z" fill="#809b8a" stroke="#809b8a"/><path d="M1454,-56L1550,43L1547,-103Z" fill="#809789" stroke="#809789"/><path d="M1547,-103L1550,43L1666,-52Z" fill="#808f85" stroke="#808f85"/><path d="M1666,-52L1550,43L1707,114Z" fill="#808983" stroke="#808983"/><path d="M-79,63L-118,695L-47,475Z" fill="#a5e6c5" stroke="#a5e6c5"/><path d="M-79,63L-47,475L-29,389Z" fill="#c1f5e6" stroke="#c1f5e6"/><path d="M-79,63L-29,389L-33,208Z" fill="#e2fff9" stroke="#e2fff9"/><path d="M-79,63L-33,208L119,18Z" fill="#fafefe" stroke="#fafefe"/><path d="M119,18L-33,208L87,253Z" fill="#f2fdfe" stroke="#f2fdfe"/><path d="M119,18L87,253L275,81Z" fill="#f1fbfc" stroke="#f1fbfc"/><path d="M275,81L87,253L273,210Z" fill="#e3f9f9" stroke="#e3f9f9"/><path d="M275,81L273,210L427,50Z" fill="#e5f7f4" stroke="#e5f7f4"/><path d="M427,50L273,210L316,263Z" fill="#dcf6f3" stroke="#dcf6f3"/><path d="M427,50L316,263L523,168Z" fill="#d6f2ed" stroke="#d6f2ed"/><path d="M427,50L523,168L553,64Z" fill="#d0eee7" stroke="#d0eee7"/><path d="M553,64L523,168L691,93Z" fill="#c2e8de" stroke="#c2e8de"/><path d="M691,93L523,168L624,275Z" fill="#b5e7da" stroke="#b5e7da"/><path d="M691,93L624,275L804,220Z" fill="#a1e1cf" stroke="#a1e1cf"/><path d="M691,93L804,220L842,100Z" fill="#a8ddc9" stroke="#a8ddc9"/><path d="M842,100L804,220L988,254Z" fill="#91d7ba" stroke="#91d7ba"/><path d="M842,100L988,254L1000,122Z" fill="#96d1b3" stroke="#96d1b3"/><path d="M1000,122L988,254L1106,242Z" fill="#7ec9a3" stroke="#7ec9a3"/><path d="M1000,122L1106,242L1101,69Z" fill="#8dc5a2" stroke="#8dc5a2"/><path d="M1101,69L1106,242L1234,216Z" fill="#7ebe9c" stroke="#7ebe9c"/><path d="M1101,69L1234,216L1321,39Z" fill="#80b898" stroke="#80b898"/><path d="M1321,39L1234,216L1379,272Z" fill="#75af92" stroke="#75af92"/><path d="M1321,39L1379,272L1445,18Z" fill="#7ea68f" stroke="#7ea68f"/><path d="M1445,18L1379,272L1598,200Z" fill="#7a9c8b" stroke="#7a9c8b"/><path d="M1445,18L1598,200L1550,43Z" fill="#7f9588" stroke="#7f9588"/><path d="M1550,43L1598,200L1707,114Z" fill="#7d8b84" stroke="#7d8b84"/><path d="M1707,114L1598,200L1679,181Z" fill="#798682" stroke="#798682"/><path d="M1707,114L1679,181L1700,414Z" fill="#5e8279" stroke="#5e8279"/><path d="M1707,114L1700,414L1760,574Z" fill="#316e54" stroke="#316e54"/><path d="M-33,208L-29,389L87,253Z" fill="#c8f8ec" stroke="#c8f8ec"/><path d="M87,253L-29,389L57,380Z" fill="#b2eedb" stroke="#b2eedb"/><path d="M87,253L57,380L175,380Z" fill="#afeedc" stroke="#afeedc"/><path d="M87,253L175,380L273,210Z" fill="#c0f5eb" stroke="#c0f5eb"/><path d="M273,210L175,380L316,263Z" fill="#b9f2e6" stroke="#b9f2e6"/><path d="M316,263L175,380L418,410Z" fill="#9fe7d0" stroke="#9fe7d0"/><path d="M316,263L418,410L523,168Z" fill="#abeddc" stroke="#abeddc"/><path d="M523,168L418,410L624,275Z" fill="#9ae6d3" stroke="#9ae6d3"/><path d="M624,275L418,410L487,434Z" fill="#80dab9" stroke="#80dab9"/><path d="M624,275L487,434L702,319Z" fill="#7bd9b9" stroke="#7bd9b9"/><path d="M624,275L702,319L804,220Z" fill="#84ddc3" stroke="#84ddc3"/><path d="M804,220L702,319L873,414Z" fill="#6ad1ac" stroke="#6ad1ac"/><path d="M804,220L873,414L988,254Z" fill="#68cfa5" stroke="#68cfa5"/><path d="M988,254L873,414L943,430Z" fill="#4ec089" stroke="#4ec089"/><path d="M988,254L943,430L1084,383Z" fill="#4bbb83" stroke="#4bbb83"/><path d="M988,254L1084,383L1106,242Z" fill="#5bbf8e" stroke="#5bbf8e"/><path d="M1106,242L1084,383L1239,425Z" fill="#40af77" stroke="#40af77"/><path d="M1106,242L1239,425L1234,216Z" fill="#4db384" stroke="#4db384"/><path d="M1234,216L1239,425L1379,272Z" fill="#45a97c" stroke="#45a97c"/><path d="M1379,272L1239,425L1400,408Z" fill="#319965" stroke="#319965"/><path d="M1379,272L1400,408L1556,400Z" fill="#338e63" stroke="#338e63"/><path d="M1379,272L1556,400L1598,200Z" fill="#4a9175" stroke="#4a9175"/><path d="M1598,200L1556,400L1700,414Z" fill="#397d62" stroke="#397d62"/><path d="M1598,200L1700,414L1679,181Z" fill="#538375" stroke="#538375"/><path d="M-29,389L-47,475L57,380Z" fill="#a1e4c2" stroke="#a1e4c2"/><path d="M57,380L-47,475L75,565Z" fill="#92d4ad" stroke="#92d4ad"/><path d="M57,380L75,565L175,380Z" fill="#96dbb8" stroke="#96dbb8"/><path d="M175,380L75,565L259,546Z" fill="#85cca4" stroke="#85cca4"/><path d="M175,380L259,546L418,410Z" fill="#89d6b0" stroke="#89d6b0"/><path d="M418,410L259,546L375,540Z" fill="#79c79b" stroke="#79c79b"/><path d="M418,410L375,540L487,434Z" fill="#77cca0" stroke="#77cca0"/><path d="M487,434L375,540L495,565Z" fill="#66be90" stroke="#66be90"/><path d="M487,434L495,565L725,579Z" fill="#53b583" stroke="#53b583"/><path d="M487,434L725,579L702,319Z" fill="#5cc493" stroke="#5cc493"/><path d="M702,319L725,579L823,470Z" fill="#4bba82" stroke="#4bba82"/><path d="M702,319L823,470L873,414Z" fill="#52c58f" stroke="#52c58f"/><path d="M873,414L823,470L943,430Z" fill="#41b777" stroke="#41b777"/><path d="M943,430L823,470L930,584Z" fill="#33a862" stroke="#33a862"/><path d="M943,430L930,584L1099,521Z" fill="#279b52" stroke="#279b52"/><path d="M943,430L1099,521L1084,383Z" fill="#32a65f" stroke="#32a65f"/><path d="M1084,383L1099,521L1239,425Z" fill="#299e57" stroke="#299e57"/><path d="M1239,425L1099,521L1216,582Z" fill="#158a3f" stroke="#158a3f"/><path d="M1239,425L1216,582L1400,408Z" fill="#188943" stroke="#188943"/><path d="M1400,408L1216,582L1334,650Z" fill="#067431" stroke="#067431"/><path d="M1400,408L1334,650L1475,476Z" fill="#0f7233" stroke="#0f7233"/><path d="M1400,408L1475,476L1556,400Z" fill="#227e4a" stroke="#227e4a"/><path d="M1556,400L1475,476L1556,565Z" fill="#166b35" stroke="#166b35"/><path d="M1556,400L1556,565L1700,414Z" fill="#1b6739" stroke="#1b6739"/><path d="M1700,414L1556,565L1760,574Z" fill="#0d5225" stroke="#0d5225"/><path d="M-47,475L-118,695L75,565Z" fill="#7dbd98" stroke="#7dbd98"/><path d="M75,565L-118,695L129,727Z" fill="#7aa38f" stroke="#7aa38f"/><path d="M75,565L129,727L212,620Z" fill="#75a890" stroke="#75a890"/><path d="M75,565L212,620L259,546Z" fill="#72b996" stroke="#72b996"/><path d="M259,546L212,620L375,540Z" fill="#6bb991" stroke="#6bb991"/><path d="M375,540L212,620L428,672Z" fill="#67ab8a" stroke="#67ab8a"/><path d="M375,540L428,672L495,565Z" fill="#5bac84" stroke="#5bac84"/><path d="M495,565L428,672L576,728Z" fill="#529578" stroke="#529578"/><path d="M495,565L576,728L725,579Z" fill="#439972" stroke="#439972"/><path d="M725,579L576,728L696,717Z" fill="#3a8666" stroke="#3a8666"/><path d="M725,579L696,717L786,702Z" fill="#31845f" stroke="#31845f"/><path d="M725,579L786,702L930,584Z" fill="#298c59" stroke="#298c59"/><path d="M725,579L930,584L823,470Z" fill="#2ea162" stroke="#2ea162"/><path d="M930,584L786,702L917,705Z" fill="#227c4d" stroke="#227c4d"/><path d="M930,584L917,705L1161,723Z" fill="#176f3b" stroke="#176f3b"/><path d="M930,584L1161,723L1099,521Z" fill="#127b39" stroke="#127b39"/><path d="M1099,521L1161,723L1216,582Z" fill="#097332" stroke="#097332"/><path d="M1216,582L1161,723L1334,650Z" fill="#015f28" stroke="#015f28"/><path d="M1475,476L1334,650L1467,693Z" fill="#005824" stroke="#005824"/><path d="M1475,476L1467,693L1556,565Z" fill="#005823" stroke="#005823"/><path d="M1556,565L1467,693L1550,710Z" fill="#003d1a" stroke="#003d1a"/><path d="M1556,565L1550,710L1691,672Z" fill="#003717" stroke="#003717"/><path d="M1556,565L1691,672L1760,574Z" fill="#003c18" stroke="#003c18"/><path d="M1760,574L1691,672L1665,772Z" fill="#00240f" stroke="#00240f"/><path d="M-118,695L-123,792L129,727Z" fill="#7e8d88" stroke="#7e8d88"/><path d="M129,727L-123,792L64,866Z" fill="#7b7e81" stroke="#7b7e81"/><path d="M129,727L64,866L174,775Z" fill="#767c80" stroke="#767c80"/><path d="M129,727L174,775L212,620Z" fill="#739288" stroke="#739288"/><path d="M212,620L174,775L428,672Z" fill="#6c9585" stroke="#6c9585"/><path d="M428,672L174,775L408,838Z" fill="#687e7a" stroke="#687e7a"/><path d="M428,672L408,838L576,728Z" fill="#567c71" stroke="#567c71"/><path d="M576,728L408,838L542,859Z" fill="#506e68" stroke="#506e68"/><path d="M576,728L542,859L700,768Z" fill="#426861" stroke="#426861"/><path d="M576,728L700,768L696,717Z" fill="#3b7360" stroke="#3b7360"/><path d="M696,717L700,768L786,702Z" fill="#32715a" stroke="#32715a"/><path d="M786,702L700,768L853,766Z" fill="#2c6951" stroke="#2c6951"/><path d="M786,702L853,766L917,705Z" fill="#256c4a" stroke="#256c4a"/><path d="M917,705L853,766L958,859Z" fill="#1f583d" stroke="#1f583d"/><path d="M917,705L958,859L1161,723Z" fill="#165230" stroke="#165230"/><path d="M1161,723L958,859L1169,844Z" fill="#0f4322" stroke="#0f4322"/><path d="M1161,723L1169,844L1237,842Z" fill="#063b1c" stroke="#063b1c"/><path d="M1161,723L1237,842L1334,650Z" fill="#00451f" stroke="#00451f"/><path d="M1334,650L1237,842L1390,813Z" fill="#003318" stroke="#003318"/><path d="M1334,650L1390,813L1467,693Z" fill="#003919" stroke="#003919"/><path d="M1467,693L1390,813L1550,710Z" fill="#002b14" stroke="#002b14"/><path d="M1550,710L1390,813L1593,805Z" fill="#001b0e" stroke="#001b0e"/><path d="M1550,710L1593,805L1665,772Z" fill="#00140b" stroke="#00140b"/><path d="M1550,710L1665,772L1691,672Z" fill="#001e0e" stroke="#001e0e"/><path d="M64,866L958,859L542,859Z" fill="#4e6d66" stroke="#4e6d66"/><path d="M64,866L542,859L408,838Z" fill="#677774" stroke="#677774"/><path d="M64,866L408,838L174,775Z" fill="#707a7b" stroke="#707a7b"/><path d="M542,859L958,859L700,768Z" fill="#31604f" stroke="#31604f"/><path d="M700,768L958,859L853,766Z" fill="#265a44" stroke="#265a44"/><path d="M958,859L1237,842L1169,844Z" fill="#0c411f" stroke="#0c411f"/><path d="M1237,842L1593,805L1390,813Z" fill="#00240e" stroke="#00240e"/></g></svg>