<svg width="1600" height="732" xmlns="http://www.w3.org/2000/svg"><g><path d="M-121,-36L-118,559L-98,134Z" fill="#db74b0" stroke="#db74b0"/><path d="M-121,-36L-98,134L52,62Z" fill="#db3193" stroke="#db3193"/><path d="M-121,-36L52,62L107,-27Z" fill="#d9228b" stroke="#d9228b"/><path d="M-121,-36L107,-27L170,-77Z" fill="#d71a81" stroke="#d71a81"/><path d="M-121,-36L170,-77L328,-109Z" fill="#d82b81" stroke="#d82b81"/><path d="M107,-27L52,62L232,101Z" fill="#e558a8" stroke="#e558a8"/><path d="M107,-27L232,101L170,-77Z" fill="#e3469e" stroke="#e3469e"/><path d="M170,-77L232,101L328,-109Z" fill="#e4449e" stroke="#e4449e"/><path d="M328,-109L232,101L417,39Z" fill="#ec67b3" stroke="#ec67b3"/><path d="M328,-109L417,39L484,-16Z" fill="#ec5daf" stroke="#ec5daf"/><path d="M328,-109L484,-16L673,-123Z" fill="#e865a3" stroke="#e865a3"/><path d="M484,-16L417,39L481,76Z" fill="#f487c5" stroke="#f487c5"/><path d="M484,-16L481,76L682,62Z" fill="#f794cd" stroke="#f794cd"/><path d="M484,-16L682,62L673,-123Z" fill="#f173b9" stroke="#f173b9"/><path d="M673,-123L682,62L780,65Z" fill="#ee89ba" stroke="#ee89ba"/><path d="M673,-123L780,65L827,-128Z" fill="#e479a2" stroke="#e479a2"/><path d="M827,-128L780,65L919,68Z" fill="#e48bab" stroke="#e48bab"/><path d="M827,-128L919,68L944,-116Z" fill="#d7768e" stroke="#d7768e"/><path d="M827,-128L944,-116L1393,-122Z" fill="#bc6c5e" stroke="#bc6c5e"/><path d="M944,-116L919,68L1096,-61Z" fill="#cf7185" stroke="#cf7185"/><path d="M944,-116L1096,-61L1393,-122Z" fill="#b26355" stroke="#b26355"/><path d="M1096,-61L919,68L1140,55Z" fill="#cd898b" stroke="#cd898b"/><path d="M1096,-61L1140,55L1329,-40Z" fill="#b56868" stroke="#b56868"/><path d="M1096,-61L1329,-40L1393,-122Z" fill="#a4574e" stroke="#a4574e"/><path d="M1329,-40L1140,55L1313,73Z" fill="#b17a70" stroke="#b17a70"/><path d="M1329,-40L1313,73L1438,59Z" fill="#a57168" stroke="#a57168"/><path d="M1329,-40L1438,59L1393,-122Z" fill="#9a4b51" stroke="#9a4b51"/><path d="M1393,-122L1438,59L1548,-54Z" fill="#90434a" stroke="#90434a"/><path d="M1393,-122L1548,-54L1740,-48Z" fill="#803837" stroke="#803837"/><path d="M1548,-54L1438,59L1573,51Z" fill="#8f5958" stroke="#8f5958"/><path d="M1548,-54L1573,51L1740,-48Z" fill="#7f3a45" stroke="#7f3a45"/><path d="M1740,-48L1573,51L1776,83Z" fill="#7a4d54" stroke="#7a4d54"/><path d="M-98,134L-118,559L-22,366Z" fill="#dd80b2" stroke="#dd80b2"/><path d="M-98,134L-22,366L-17,284Z" fill="#df80b9" stroke="#df80b9"/><path d="M-98,134L-17,284L66,200Z" fill="#e17bbc" stroke="#e17bbc"/><path d="M-98,134L66,200L52,62Z" fill="#e367b2" stroke="#e367b2"/><path d="M52,62L66,200L232,101Z" fill="#ea7cbc" stroke="#ea7cbc"/><path d="M232,101L66,200L227,219Z" fill="#ed9fd1" stroke="#ed9fd1"/><path d="M232,101L227,219L337,235Z" fill="#f2b3de" stroke="#f2b3de"/><path d="M232,101L337,235L417,39Z" fill="#f5a5d6" stroke="#f5a5d6"/><path d="M417,39L337,235L481,76Z" fill="#f9aedc" stroke="#f9aedc"/><path d="M481,76L337,235L529,219Z" fill="#facaee" stroke="#facaee"/><path d="M481,76L529,219L682,62Z" fill="#fdbfe4" stroke="#fdbfe4"/><path d="M682,62L529,219L735,262Z" fill="#fbdef3" stroke="#fbdef3"/><path d="M682,62L735,262L780,65Z" fill="#f7cedf" stroke="#f7cedf"/><path d="M780,65L735,262L869,176Z" fill="#f3e0e4" stroke="#f3e0e4"/><path d="M780,65L869,176L919,68Z" fill="#ecc3c8" stroke="#ecc3c8"/><path d="M919,68L869,176L918,249Z" fill="#e7dbd0" stroke="#e7dbd0"/><path d="M919,68L918,249L1158,210Z" fill="#dcdac1" stroke="#dcdac1"/><path d="M919,68L1158,210L1140,55Z" fill="#d1b9a3" stroke="#d1b9a3"/><path d="M1140,55L1158,210L1273,180Z" fill="#c1be99" stroke="#c1be99"/><path d="M1140,55L1273,180L1313,73Z" fill="#baa588" stroke="#baa588"/><path d="M1313,73L1273,180L1451,238Z" fill="#adb390" stroke="#adb390"/><path d="M1313,73L1451,238L1438,59Z" fill="#a69d81" stroke="#a69d81"/><path d="M1438,59L1451,238L1573,51Z" fill="#9b9178" stroke="#9b9178"/><path d="M1573,51L1451,238L1619,182Z" fill="#949c7d" stroke="#949c7d"/><path d="M1573,51L1619,182L1692,176Z" fill="#8a8b74" stroke="#8a8b74"/><path d="M1573,51L1692,176L1776,83Z" fill="#83786b" stroke="#83786b"/><path d="M1776,83L1692,176L1696,358Z" fill="#809980" stroke="#809980"/><path d="M1776,83L1696,358L1719,521Z" fill="#80a67e" stroke="#80a67e"/><path d="M1776,83L1719,521L1768,838Z" fill="#65a046" stroke="#65a046"/><path d="M-17,284L-22,366L120,393Z" fill="#e493bf" stroke="#e493bf"/><path d="M-17,284L120,393L66,200Z" fill="#e69ac5" stroke="#e69ac5"/><path d="M66,200L120,393L227,219Z" fill="#ebaccf" stroke="#ebaccf"/><path d="M227,219L120,393L279,346Z" fill="#efbdd6" stroke="#efbdd6"/><path d="M227,219L279,346L337,235Z" fill="#f3c7e0" stroke="#f3c7e0"/><path d="M337,235L279,346L384,355Z" fill="#f5d0e4" stroke="#f5d0e4"/><path d="M337,235L384,355L477,322Z" fill="#f8dbec" stroke="#f8dbec"/><path d="M337,235L477,322L529,219Z" fill="#fadcef" stroke="#fadcef"/><path d="M529,219L477,322L643,428Z" fill="#fdeaf3" stroke="#fdeaf3"/><path d="M529,219L643,428L735,262Z" fill="#fcf2f3" stroke="#fcf2f3"/><path d="M735,262L643,428L880,388Z" fill="#f5f8e8" stroke="#f5f8e8"/><path d="M735,262L880,388L918,249Z" fill="#eef8df" stroke="#eef8df"/><path d="M735,262L918,249L869,176Z" fill="#eeefe0" stroke="#eeefe0"/><path d="M918,249L880,388L942,362Z" fill="#e6f5d1" stroke="#e6f5d1"/><path d="M918,249L942,362L1158,210Z" fill="#dbf0c2" stroke="#dbf0c2"/><path d="M1158,210L942,362L1139,411Z" fill="#d0e9b3" stroke="#d0e9b3"/><path d="M1158,210L1139,411L1298,361Z" fill="#bfde9f" stroke="#bfde9f"/><path d="M1158,210L1298,361L1273,180Z" fill="#bad49d" stroke="#bad49d"/><path d="M1273,180L1298,361L1451,238Z" fill="#aecc95" stroke="#aecc95"/><path d="M1451,238L1298,361L1455,348Z" fill="#a6c98f" stroke="#a6c98f"/><path d="M1451,238L1455,348L1553,368Z" fill="#9bc088" stroke="#9bc088"/><path d="M1451,238L1553,368L1619,182Z" fill="#95b785" stroke="#95b785"/><path d="M1619,182L1553,368L1696,358Z" fill="#8ab17f" stroke="#8ab17f"/><path d="M1619,182L1696,358L1692,176Z" fill="#85a580" stroke="#85a580"/><path d="M-22,366L-118,559L69,475Z" fill="#cb8688" stroke="#cb8688"/><path d="M-22,366L69,475L120,393Z" fill="#dd9aac" stroke="#dd9aac"/><path d="M120,393L69,475L182,580Z" fill="#cea592" stroke="#cea592"/><path d="M120,393L182,580L317,512Z" fill="#cfb697" stroke="#cfb697"/><path d="M120,393L317,512L279,346Z" fill="#e7c1bf" stroke="#e7c1bf"/><path d="M279,346L317,512L384,355Z" fill="#edcfcf" stroke="#edcfcf"/><path d="M384,355L317,512L546,568Z" fill="#dfd9b5" stroke="#dfd9b5"/><path d="M384,355L546,568L477,322Z" fill="#f1e2d5" stroke="#f1e2d5"/><path d="M477,322L546,568L643,428Z" fill="#eeebce" stroke="#eeebce"/><path d="M643,428L546,568L686,583Z" fill="#d1e6a7" stroke="#d1e6a7"/><path d="M643,428L686,583L780,585Z" fill="#cbe99e" stroke="#cbe99e"/><path d="M643,428L780,585L880,388Z" fill="#dff7b6" stroke="#dff7b6"/><path d="M880,388L780,585L993,490Z" fill="#ccf19b" stroke="#ccf19b"/><path d="M880,388L993,490L942,362Z" fill="#d9f3b4" stroke="#d9f3b4"/><path d="M942,362L993,490L1139,411Z" fill="#cdeea0" stroke="#cdeea0"/><path d="M1139,411L993,490L1155,521Z" fill="#b6e47b" stroke="#b6e47b"/><path d="M1139,411L1155,521L1300,508Z" fill="#a5da67" stroke="#a5da67"/><path d="M1139,411L1300,508L1298,361Z" fill="#aed97c" stroke="#aed97c"/><path d="M1298,361L1300,508L1438,518Z" fill="#99cd63" stroke="#99cd63"/><path d="M1298,361L1438,518L1455,348Z" fill="#9ec978" stroke="#9ec978"/><path d="M1455,348L1438,518L1553,368Z" fill="#93c070" stroke="#93c070"/><path d="M1553,368L1438,518L1630,489Z" fill="#82ba55" stroke="#82ba55"/><path d="M1553,368L1630,489L1696,358Z" fill="#82b169" stroke="#82b169"/><path d="M1696,358L1630,489L1719,521Z" fill="#72ab51" stroke="#72ab51"/><path d="M-118,559L-108,826L-50,692Z" fill="#7b493c" stroke="#7b493c"/><path d="M-118,559L-50,692L45,653Z" fill="#905d4e" stroke="#905d4e"/><path d="M-118,559L45,653L69,475Z" fill="#aa7a62" stroke="#aa7a62"/><path d="M69,475L45,653L182,580Z" fill="#ae8f6d" stroke="#ae8f6d"/><path d="M182,580L45,653L200,724Z" fill="#968261" stroke="#968261"/><path d="M182,580L200,724L333,675Z" fill="#99946b" stroke="#99946b"/><path d="M182,580L333,675L317,512Z" fill="#b1ad7e" stroke="#b1ad7e"/><path d="M317,512L333,675L546,568Z" fill="#b9c18c" stroke="#b9c18c"/><path d="M546,568L333,675L526,669Z" fill="#aaba85" stroke="#aaba85"/><path d="M546,568L526,669L686,583Z" fill="#b7cf92" stroke="#b7cf92"/><path d="M686,583L526,669L703,677Z" fill="#aac988" stroke="#aac988"/><path d="M686,583L703,677L780,585Z" fill="#aed587" stroke="#aed587"/><path d="M780,585L703,677L785,675Z" fill="#a2ce7e" stroke="#a2ce7e"/><path d="M780,585L785,675L1000,621Z" fill="#9fd375" stroke="#9fd375"/><path d="M780,585L1000,621L993,490Z" fill="#abe074" stroke="#abe074"/><path d="M993,490L1000,621L1155,521Z" fill="#a3dd64" stroke="#a3dd64"/><path d="M1155,521L1000,621L1078,732Z" fill="#84c54d" stroke="#84c54d"/><path d="M1155,521L1078,732L1281,705Z" fill="#6eb437" stroke="#6eb437"/><path d="M1155,521L1281,705L1300,508Z" fill="#7cc13e" stroke="#7cc13e"/><path d="M1300,508L1281,705L1388,729Z" fill="#5ca629" stroke="#5ca629"/><path d="M1300,508L1388,729L1438,518Z" fill="#6ab232" stroke="#6ab232"/><path d="M1438,518L1388,729L1552,646Z" fill="#509d22" stroke="#509d22"/><path d="M1438,518L1552,646L1630,489Z" fill="#60aa2c" stroke="#60aa2c"/><path d="M1630,489L1552,646L1677,686Z" fill="#44921b" stroke="#44921b"/><path d="M1630,489L1677,686L1719,521Z" fill="#4a9823" stroke="#4a9823"/><path d="M1719,521L1677,686L1768,838Z" fill="#21740b" stroke="#21740b"/><path d="M-50,692L-108,826L62,874Z" fill="#61323b" stroke="#61323b"/><path d="M-50,692L62,874L45,653Z" fill="#724e41" stroke="#724e41"/><path d="M45,653L62,874L200,724Z" fill="#745e4b" stroke="#745e4b"/><path d="M200,724L62,874L207,852Z" fill="#6d5952" stroke="#6d5952"/><path d="M200,724L207,852L394,773Z" fill="#72765f" stroke="#72765f"/><path d="M200,724L394,773L333,675Z" fill="#878d65" stroke="#878d65"/><path d="M333,675L394,773L526,669Z" fill="#92a274" stroke="#92a274"/><path d="M526,669L394,773L478,875Z" fill="#7e9571" stroke="#7e9571"/><path d="M526,669L478,875L706,877Z" fill="#7e9776" stroke="#7e9776"/><path d="M526,669L706,877L703,677Z" fill="#8aae74" stroke="#8aae74"/><path d="M703,677L706,877L820,840Z" fill="#77a46d" stroke="#77a46d"/><path d="M703,677L820,840L785,675Z" fill="#86b86c" stroke="#86b86c"/><path d="M785,675L820,840L985,836Z" fill="#6ca85d" stroke="#6ca85d"/><path d="M785,675L985,836L1000,621Z" fill="#7db956" stroke="#7db956"/><path d="M1000,621L985,836L1078,732Z" fill="#6bad41" stroke="#6bad41"/><path d="M1078,732L985,836L1136,852Z" fill="#539438" stroke="#539438"/><path d="M1078,732L1136,852L1281,705Z" fill="#4b9727" stroke="#4b9727"/><path d="M1281,705L1136,852L1254,862Z" fill="#3d851f" stroke="#3d851f"/><path d="M1281,705L1254,862L1388,729Z" fill="#388818" stroke="#388818"/><path d="M1388,729L1254,862L1467,868Z" fill="#2b7213" stroke="#2b7213"/><path d="M1388,729L1467,868L1565,805Z" fill="#1e6d0b" stroke="#1e6d0b"/><path d="M1388,729L1565,805L1552,646Z" fill="#2c7e0a" stroke="#2c7e0a"/><path d="M1552,646L1565,805L1677,686Z" fill="#257805" stroke="#257805"/><path d="M1677,686L1565,805L1768,838Z" fill="#075f00" stroke="#075f00"/><path d="M62,874L706,877L478,875Z" fill="#79746e" stroke="#79746e"/><path d="M62,874L478,875L207,852Z" fill="#725c5d" stroke="#725c5d"/><path d="M207,852L478,875L394,773Z" fill="#777769" stroke="#777769"/><path d="M706,877L1467,868L1254,862Z" fill="#487c2b" stroke="#487c2b"/><path d="M706,877L1254,862L1136,852Z" fill="#58883e" stroke="#58883e"/><path d="M706,877L1136,852L985,836Z" fill="#63904e" stroke="#63904e"/><path d="M706,877L985,836L820,840Z" fill="#6f9661" stroke="#6f9661"/><path d="M1467,868L1768,838L1565,805Z" fill="#0e5601" stroke="#0e5601"/></g></svg>