<svg width="1600" height="775" xmlns="http://www.w3.org/2000/svg"><g><path d="M-51,-124L-109,349L-54,51Z" fill="#f6f7fe" stroke="#f6f7fe"/><path d="M-51,-124L-54,51L101,-69Z" fill="#fbf7fb" stroke="#fbf7fb"/><path d="M-51,-124L101,-69L185,-98Z" fill="#f4f3f9" stroke="#f4f3f9"/><path d="M-51,-124L185,-98L328,-104Z" fill="#edeef6" stroke="#edeef6"/><path d="M-51,-124L328,-104L966,-123Z" fill="#d2e0ee" stroke="#d2e0ee"/><path d="M101,-69L-54,51L128,78Z" fill="#f4f3f9" stroke="#f4f3f9"/><path d="M101,-69L128,78L195,83Z" fill="#ebedf6" stroke="#ebedf6"/><path d="M101,-69L195,83L185,-98Z" fill="#eceef6" stroke="#eceef6"/><path d="M185,-98L195,83L328,-104Z" fill="#e6e9f3" stroke="#e6e9f3"/><path d="M328,-104L195,83L431,36Z" fill="#dee4f0" stroke="#dee4f0"/><path d="M328,-104L431,36L531,-86Z" fill="#cfdfed" stroke="#cfdfed"/><path d="M328,-104L531,-86L966,-123Z" fill="#b8d6e8" stroke="#b8d6e8"/><path d="M531,-86L431,36L575,28Z" fill="#c4dbeb" stroke="#c4dbeb"/><path d="M531,-86L575,28L675,-76Z" fill="#b9d7e9" stroke="#b9d7e9"/><path d="M531,-86L675,-76L966,-123Z" fill="#a9d1e0" stroke="#a9d1e0"/><path d="M675,-76L575,28L663,68Z" fill="#b3d4e7" stroke="#b3d4e7"/><path d="M675,-76L663,68L778,32Z" fill="#abd1e2" stroke="#abd1e2"/><path d="M675,-76L778,32L849,-63Z" fill="#a4cfdd" stroke="#a4cfdd"/><path d="M675,-76L849,-63L966,-123Z" fill="#9dcdd7" stroke="#9dcdd7"/><path d="M849,-63L778,32L933,35Z" fill="#9accd5" stroke="#9accd5"/><path d="M849,-63L933,35L966,-123Z" fill="#93c9d0" stroke="#93c9d0"/><path d="M966,-123L933,35L1082,70Z" fill="#8cc6c9" stroke="#8cc6c9"/><path d="M966,-123L1082,70L1145,-30Z" fill="#89c2c2" stroke="#89c2c2"/><path d="M966,-123L1145,-30L1298,-73Z" fill="#86bebb" stroke="#86bebb"/><path d="M966,-123L1298,-73L1420,-98Z" fill="#82b9b1" stroke="#82b9b1"/><path d="M1145,-30L1082,70L1215,109Z" fill="#81bbba" stroke="#81bbba"/><path d="M1145,-30L1215,109L1298,-73Z" fill="#83b9b2" stroke="#83b9b2"/><path d="M1298,-73L1215,109L1442,47Z" fill="#7db2a8" stroke="#7db2a8"/><path d="M1298,-73L1442,47L1420,-98Z" fill="#80b0a2" stroke="#80b0a2"/><path d="M1420,-98L1442,47L1632,-73Z" fill="#80a996" stroke="#80a996"/><path d="M1420,-98L1632,-73L1771,-70Z" fill="#80a38b" stroke="#80a38b"/><path d="M1632,-73L1442,47L1548,132Z" fill="#7ca692" stroke="#7ca692"/><path d="M1632,-73L1548,132L1700,17Z" fill="#7da18a" stroke="#7da18a"/><path d="M1632,-73L1700,17L1771,-70Z" fill="#809e82" stroke="#809e82"/><path d="M1771,-70L1700,17L1721,203Z" fill="#7b9a80" stroke="#7b9a80"/><path d="M1771,-70L1721,203L1769,376Z" fill="#6c927f" stroke="#6c927f"/><path d="M-54,51L-109,349L-68,246Z" fill="#dcedfc" stroke="#dcedfc"/><path d="M-54,51L-68,246L102,226Z" fill="#e6eefb" stroke="#e6eefb"/><path d="M-54,51L102,226L128,78Z" fill="#eaeef9" stroke="#eaeef9"/><path d="M128,78L102,226L217,166Z" fill="#dee7f6" stroke="#dee7f6"/><path d="M128,78L217,166L195,83Z" fill="#e0e7f5" stroke="#e0e7f5"/><path d="M195,83L217,166L431,36Z" fill="#d9e2f2" stroke="#d9e2f2"/><path d="M431,36L217,166L412,281Z" fill="#c9daef" stroke="#c9daef"/><path d="M431,36L412,281L553,232Z" fill="#b3d2ec" stroke="#b3d2ec"/><path d="M431,36L553,232L575,28Z" fill="#bad5eb" stroke="#bad5eb"/><path d="M575,28L553,232L663,68Z" fill="#afd1e8" stroke="#afd1e8"/><path d="M663,68L553,232L720,183Z" fill="#a2cce7" stroke="#a2cce7"/><path d="M663,68L720,183L778,32Z" fill="#a1cde0" stroke="#a1cde0"/><path d="M778,32L720,183L824,172Z" fill="#97c9dc" stroke="#97c9dc"/><path d="M778,32L824,172L933,35Z" fill="#94c8d6" stroke="#94c8d6"/><path d="M933,35L824,172L1000,264Z" fill="#83c1d0" stroke="#83c1d0"/><path d="M933,35L1000,264L1082,70Z" fill="#80bfc8" stroke="#80bfc8"/><path d="M1082,70L1000,264L1183,221Z" fill="#6fb5be" stroke="#6fb5be"/><path d="M1082,70L1183,221L1215,109Z" fill="#78b6b8" stroke="#78b6b8"/><path d="M1215,109L1183,221L1257,232Z" fill="#69aeb1" stroke="#69aeb1"/><path d="M1215,109L1257,232L1378,170Z" fill="#6cacab" stroke="#6cacab"/><path d="M1215,109L1378,170L1442,47Z" fill="#75ada6" stroke="#75ada6"/><path d="M1442,47L1378,170L1548,132Z" fill="#74a69b" stroke="#74a69b"/><path d="M1548,132L1378,170L1529,242Z" fill="#689f97" stroke="#689f97"/><path d="M1548,132L1529,242L1721,203Z" fill="#64988b" stroke="#64988b"/><path d="M1548,132L1721,203L1700,17Z" fill="#749b87" stroke="#749b87"/><path d="M-68,246L-109,349L93,415Z" fill="#b4dbf3" stroke="#b4dbf3"/><path d="M-68,246L93,415L102,226Z" fill="#b9dcf6" stroke="#b9dcf6"/><path d="M102,226L93,415L184,400Z" fill="#a3d1eb" stroke="#a3d1eb"/><path d="M102,226L184,400L217,166Z" fill="#b9d8f2" stroke="#b9d8f2"/><path d="M217,166L184,400L412,281Z" fill="#aad0ee" stroke="#aad0ee"/><path d="M412,281L184,400L419,368Z" fill="#8ec5e3" stroke="#8ec5e3"/><path d="M412,281L419,368L573,344Z" fill="#82c0e4" stroke="#82c0e4"/><path d="M412,281L573,344L553,232Z" fill="#8ac3e7" stroke="#8ac3e7"/><path d="M553,232L573,344L720,183Z" fill="#88c1e5" stroke="#88c1e5"/><path d="M720,183L573,344L692,392Z" fill="#70b9e1" stroke="#70b9e1"/><path d="M720,183L692,392L824,172Z" fill="#79bddc" stroke="#79bddc"/><path d="M824,172L692,392L859,431Z" fill="#59b1d2" stroke="#59b1d2"/><path d="M824,172L859,431L945,333Z" fill="#55b0cf" stroke="#55b0cf"/><path d="M824,172L945,333L1000,264Z" fill="#62b5cd" stroke="#62b5cd"/><path d="M1000,264L945,333L1083,414Z" fill="#42a7be" stroke="#42a7be"/><path d="M1000,264L1083,414L1183,221Z" fill="#4aa7bc" stroke="#4aa7bc"/><path d="M1183,221L1083,414L1295,409Z" fill="#379caa" stroke="#379caa"/><path d="M1183,221L1295,409L1257,232Z" fill="#47a0ac" stroke="#47a0ac"/><path d="M1257,232L1295,409L1378,170Z" fill="#4b9ea6" stroke="#4b9ea6"/><path d="M1378,170L1295,409L1467,394Z" fill="#3a949b" stroke="#3a949b"/><path d="M1378,170L1467,394L1529,242Z" fill="#4b9697" stroke="#4b9697"/><path d="M1529,242L1467,394L1615,383Z" fill="#358989" stroke="#358989"/><path d="M1529,242L1615,383L1721,203Z" fill="#498c87" stroke="#498c87"/><path d="M1721,203L1615,383L1769,376Z" fill="#3b827c" stroke="#3b827c"/><path d="M-109,349L-125,882L-70,684Z" fill="#91bcb0" stroke="#91bcb0"/><path d="M-109,349L-70,684L-17,523Z" fill="#91cacc" stroke="#91cacc"/><path d="M-109,349L-17,523L55,484Z" fill="#92d0da" stroke="#92d0da"/><path d="M-109,349L55,484L93,415Z" fill="#9ad1e1" stroke="#9ad1e1"/><path d="M93,415L55,484L167,490Z" fill="#84c8d4" stroke="#84c8d4"/><path d="M93,415L167,490L184,400Z" fill="#88c8d8" stroke="#88c8d8"/><path d="M184,400L167,490L359,511Z" fill="#78bfce" stroke="#78bfce"/><path d="M184,400L359,511L419,368Z" fill="#7bbed4" stroke="#7bbed4"/><path d="M419,368L359,511L536,544Z" fill="#60b3c6" stroke="#60b3c6"/><path d="M419,368L536,544L573,344Z" fill="#64b6d0" stroke="#64b6d0"/><path d="M573,344L536,544L618,522Z" fill="#4eadc4" stroke="#4eadc4"/><path d="M573,344L618,522L692,392Z" fill="#54b0cd" stroke="#54b0cd"/><path d="M692,392L618,522L782,570Z" fill="#3fa5b6" stroke="#3fa5b6"/><path d="M692,392L782,570L859,431Z" fill="#35a5b7" stroke="#35a5b7"/><path d="M859,431L782,570L875,636Z" fill="#2e989e" stroke="#2e989e"/><path d="M859,431L875,636L1016,578Z" fill="#259497" stroke="#259497"/><path d="M859,431L1016,578L1085,490Z" fill="#1f989d" stroke="#1f989d"/><path d="M859,431L1085,490L1083,414Z" fill="#239da7" stroke="#239da7"/><path d="M859,431L1083,414L945,333Z" fill="#34a5b7" stroke="#34a5b7"/><path d="M1083,414L1085,490L1254,516Z" fill="#189394" stroke="#189394"/><path d="M1083,414L1254,516L1295,409Z" fill="#1b9293" stroke="#1b9293"/><path d="M1295,409L1254,516L1378,503Z" fill="#128982" stroke="#128982"/><path d="M1295,409L1378,503L1467,394Z" fill="#1a8a84" stroke="#1a8a84"/><path d="M1467,394L1378,503L1577,506Z" fill="#128174" stroke="#128174"/><path d="M1467,394L1577,506L1615,383Z" fill="#1c8074" stroke="#1c8074"/><path d="M1615,383L1577,506L1667,579Z" fill="#127660" stroke="#127660"/><path d="M1615,383L1667,579L1769,376Z" fill="#177863" stroke="#177863"/><path d="M1769,376L1667,579L1757,668Z" fill="#126849" stroke="#126849"/><path d="M-17,523L-70,684L27,669Z" fill="#8fb9b0" stroke="#8fb9b0"/><path d="M-17,523L27,669L55,484Z" fill="#8bbfbf" stroke="#8bbfbf"/><path d="M55,484L27,669L167,490Z" fill="#85bdbf" stroke="#85bdbf"/><path d="M167,490L27,669L230,691Z" fill="#80b0ad" stroke="#80b0ad"/><path d="M167,490L230,691L359,511Z" fill="#76b1b6" stroke="#76b1b6"/><path d="M359,511L230,691L330,694Z" fill="#71a5a3" stroke="#71a5a3"/><path d="M359,511L330,694L536,544Z" fill="#64a6ac" stroke="#64a6ac"/><path d="M536,544L330,694L579,694Z" fill="#5b9a9b" stroke="#5b9a9b"/><path d="M536,544L579,694L618,522Z" fill="#4e9da7" stroke="#4e9da7"/><path d="M618,522L579,694L647,688Z" fill="#49959a" stroke="#49959a"/><path d="M618,522L647,688L782,570Z" fill="#4097a0" stroke="#4097a0"/><path d="M782,570L647,688L875,636Z" fill="#368f8f" stroke="#368f8f"/><path d="M1016,578L875,636L1005,713Z" fill="#20857c" stroke="#20857c"/><path d="M1016,578L1005,713L1105,642Z" fill="#1c8174" stroke="#1c8174"/><path d="M1016,578L1105,642L1085,490Z" fill="#1b8a83" stroke="#1b8a83"/><path d="M1085,490L1105,642L1254,516Z" fill="#188880" stroke="#188880"/><path d="M1254,516L1105,642L1298,618Z" fill="#157e6f" stroke="#157e6f"/><path d="M1254,516L1298,618L1378,503Z" fill="#128071" stroke="#128071"/><path d="M1378,503L1298,618L1478,621Z" fill="#127661" stroke="#127661"/><path d="M1378,503L1478,621L1577,506Z" fill="#127661" stroke="#127661"/><path d="M1577,506L1478,621L1620,647Z" fill="#126b4d" stroke="#126b4d"/><path d="M1577,506L1620,647L1667,579Z" fill="#126a4a" stroke="#126a4a"/><path d="M1667,579L1620,647L1757,668Z" fill="#125f37" stroke="#125f37"/><path d="M-70,684L-125,882L35,838Z" fill="#91a286" stroke="#91a286"/><path d="M-70,684L35,838L27,669Z" fill="#8da996" stroke="#8da996"/><path d="M27,669L35,838L169,765Z" fill="#86a18d" stroke="#86a18d"/><path d="M27,669L169,765L230,691Z" fill="#80a396" stroke="#80a396"/><path d="M230,691L169,765L330,694Z" fill="#779c91" stroke="#779c91"/><path d="M330,694L169,765L423,799Z" fill="#719486" stroke="#719486"/><path d="M330,694L423,799L579,694Z" fill="#609088" stroke="#609088"/><path d="M579,694L423,799L558,856Z" fill="#558578" stroke="#558578"/><path d="M579,694L558,856L647,688Z" fill="#4b867f" stroke="#4b867f"/><path d="M647,688L558,856L702,881Z" fill="#467b6f" stroke="#467b6f"/><path d="M647,688L702,881L841,884Z" fill="#3b7665" stroke="#3b7665"/><path d="M647,688L841,884L875,636Z" fill="#347f74" stroke="#347f74"/><path d="M875,636L841,884L999,793Z" fill="#267661" stroke="#267661"/><path d="M875,636L999,793L1005,713Z" fill="#207c6b" stroke="#207c6b"/><path d="M1005,713L999,793L1105,642Z" fill="#1d7763" stroke="#1d7763"/><path d="M1105,642L999,793L1185,877Z" fill="#1a6c4f" stroke="#1a6c4f"/><path d="M1105,642L1185,877L1328,820Z" fill="#156542" stroke="#156542"/><path d="M1105,642L1328,820L1298,618Z" fill="#146f53" stroke="#146f53"/><path d="M1298,618L1328,820L1478,621Z" fill="#126948" stroke="#126948"/><path d="M1478,621L1328,820L1469,844Z" fill="#125b31" stroke="#125b31"/><path d="M1478,621L1469,844L1623,799Z" fill="#125728" stroke="#125728"/><path d="M1478,621L1623,799L1620,647Z" fill="#125d33" stroke="#125d33"/><path d="M1620,647L1623,799L1757,668Z" fill="#125626" stroke="#125626"/><path d="M1757,668L1623,799L1744,821Z" fill="#124b14" stroke="#124b14"/><path d="M-125,882L-70,1015L35,838Z" fill="#91937e" stroke="#91937e"/><path d="M35,838L-70,1015L42,1002Z" fill="#8d8a7c" stroke="#8d8a7c"/><path d="M35,838L42,1002L220,963Z" fill="#848778" stroke="#848778"/><path d="M35,838L220,963L169,765Z" fill="#808f77" stroke="#808f77"/><path d="M169,765L220,963L423,799Z" fill="#758972" stroke="#758972"/><path d="M423,799L220,963L357,1035Z" fill="#6e7970" stroke="#6e7970"/><path d="M423,799L357,1035L558,856Z" fill="#5f786d" stroke="#5f786d"/><path d="M558,856L357,1035L543,1034Z" fill="#5a6c6c" stroke="#5a6c6c"/><path d="M558,856L543,1034L661,1003Z" fill="#4c6869" stroke="#4c6869"/><path d="M558,856L661,1003L702,881Z" fill="#456d68" stroke="#456d68"/><path d="M702,881L661,1003L801,1000Z" fill="#3c6361" stroke="#3c6361"/><path d="M702,881L801,1000L841,884Z" fill="#35665c" stroke="#35665c"/><path d="M841,884L801,1000L995,920Z" fill="#296054" stroke="#296054"/><path d="M841,884L995,920L999,793Z" fill="#22674e" stroke="#22674e"/><path d="M999,793L995,920L1185,877Z" fill="#1c6143" stroke="#1c6143"/><path d="M1185,877L995,920L1163,969Z" fill="#19563d" stroke="#19563d"/><path d="M1185,877L1163,969L1276,966Z" fill="#154f34" stroke="#154f34"/><path d="M1185,877L1276,966L1328,820Z" fill="#13532e" stroke="#13532e"/><path d="M1328,820L1276,966L1394,1014Z" fill="#124827" stroke="#124827"/><path d="M1328,820L1394,1014L1469,844Z" fill="#124a21" stroke="#124a21"/><path d="M1469,844L1394,1014L1569,922Z" fill="#124119" stroke="#124119"/><path d="M1469,844L1569,922L1623,799Z" fill="#124711" stroke="#124711"/><path d="M1623,799L1569,922L1700,922Z" fill="#123f0a" stroke="#123f0a"/><path d="M1623,799L1700,922L1744,821Z" fill="#124004" stroke="#124004"/><path d="M-70,1015L357,1035L42,1002Z" fill="#837b78" stroke="#837b78"/><path d="M42,1002L357,1035L220,963Z" fill="#7a7775" stroke="#7a7775"/><path d="M543,1034L1394,1014L801,1000Z" fill="#255451" stroke="#255451"/><path d="M543,1034L801,1000L661,1003Z" fill="#425e65" stroke="#425e65"/><path d="M801,1000L1394,1014L1163,969Z" fill="#194c3d" stroke="#194c3d"/><path d="M801,1000L1163,969L995,920Z" fill="#1f584a" stroke="#1f584a"/><path d="M1163,969L1394,1014L1276,966Z" fill="#12442d" stroke="#12442d"/><path d="M1394,1014L1700,922L1569,922Z" fill="#123911" stroke="#123911"/></g></svg>