<svg width="1600" height="732" xmlns="http://www.w3.org/2000/svg"><g><path d="M-63,-49L-117,201L-63,102Z" fill="#ecfcfd" stroke="#ecfcfd"/><path d="M-63,-49L-63,102L101,-35Z" fill="#f2fafd" stroke="#f2fafd"/><path d="M-63,-49L101,-35L235,-127Z" fill="#ecf8f8" stroke="#ecf8f8"/><path d="M101,-35L-63,102L105,111Z" fill="#e6f9f8" stroke="#e6f9f8"/><path d="M101,-35L105,111L249,63Z" fill="#e0f6f4" stroke="#e0f6f4"/><path d="M101,-35L249,63L235,-127Z" fill="#e4f5f3" stroke="#e4f5f3"/><path d="M235,-127L249,63L323,-90Z" fill="#dff3f0" stroke="#dff3f0"/><path d="M235,-127L323,-90L504,-67Z" fill="#d9f1ec" stroke="#d9f1ec"/><path d="M235,-127L504,-67L854,-118Z" fill="#ccece4" stroke="#ccece4"/><path d="M235,-127L854,-118L1148,-120Z" fill="#b7e1cf" stroke="#b7e1cf"/><path d="M323,-90L249,63L390,70Z" fill="#d9f2ed" stroke="#d9f2ed"/><path d="M323,-90L390,70L504,-67Z" fill="#d5efea" stroke="#d5efea"/><path d="M504,-67L390,70L541,21Z" fill="#cfede7" stroke="#cfede7"/><path d="M504,-67L541,21L692,-73Z" fill="#c8e9e0" stroke="#c8e9e0"/><path d="M504,-67L692,-73L854,-118Z" fill="#bde4d5" stroke="#bde4d5"/><path d="M692,-73L541,21L678,108Z" fill="#bfe7d9" stroke="#bfe7d9"/><path d="M692,-73L678,108L842,88Z" fill="#b1e1ce" stroke="#b1e1ce"/><path d="M692,-73L842,88L854,-118Z" fill="#b1deca" stroke="#b1deca"/><path d="M854,-118L842,88L945,-61Z" fill="#a9dac2" stroke="#a9dac2"/><path d="M854,-118L945,-61L1148,-120Z" fill="#9ed5b8" stroke="#9ed5b8"/><path d="M945,-61L842,88L954,24Z" fill="#a3d8be" stroke="#a3d8be"/><path d="M945,-61L954,24L1148,-120Z" fill="#9bd3b4" stroke="#9bd3b4"/><path d="M1148,-120L954,24L1123,103Z" fill="#94d0ae" stroke="#94d0ae"/><path d="M1148,-120L1123,103L1260,29Z" fill="#8acba4" stroke="#8acba4"/><path d="M1148,-120L1260,29L1291,-59Z" fill="#85c89f" stroke="#85c89f"/><path d="M1148,-120L1291,-59L1475,-86Z" fill="#80c598" stroke="#80c598"/><path d="M1291,-59L1260,29L1371,60Z" fill="#7ec597" stroke="#7ec597"/><path d="M1291,-59L1371,60L1475,-86Z" fill="#80c190" stroke="#80c190"/><path d="M1475,-86L1371,60L1581,29Z" fill="#80bc87" stroke="#80bc87"/><path d="M1475,-86L1581,29L1553,-63Z" fill="#80b981" stroke="#80b981"/><path d="M1475,-86L1553,-63L1707,-33Z" fill="#80b780" stroke="#80b780"/><path d="M1553,-63L1581,29L1707,-33Z" fill="#80b580" stroke="#80b580"/><path d="M1707,-33L1581,29L1715,74Z" fill="#7cb27f" stroke="#7cb27f"/><path d="M1707,-33L1715,74L1780,342Z" fill="#6daf7c" stroke="#6daf7c"/><path d="M-63,102L-117,201L37,240Z" fill="#dbfcf9" stroke="#dbfcf9"/><path d="M-63,102L37,240L105,111Z" fill="#dafaf7" stroke="#dafaf7"/><path d="M105,111L37,240L247,229Z" fill="#ccf7f0" stroke="#ccf7f0"/><path d="M105,111L247,229L249,63Z" fill="#d0f5ef" stroke="#d0f5ef"/><path d="M249,63L247,229L390,70Z" fill="#cbf2eb" stroke="#cbf2eb"/><path d="M390,70L247,229L354,249Z" fill="#bff1e8" stroke="#bff1e8"/><path d="M390,70L354,249L553,221Z" fill="#b8eee3" stroke="#b8eee3"/><path d="M390,70L553,221L541,21Z" fill="#c0ede3" stroke="#c0ede3"/><path d="M541,21L553,221L678,108Z" fill="#b5e9db" stroke="#b5e9db"/><path d="M678,108L553,221L686,187Z" fill="#a8e6d4" stroke="#a8e6d4"/><path d="M678,108L686,187L787,218Z" fill="#a0e2cc" stroke="#a0e2cc"/><path d="M678,108L787,218L842,88Z" fill="#a0e0c9" stroke="#a0e0c9"/><path d="M842,88L787,218L979,219Z" fill="#90dbbd" stroke="#90dbbd"/><path d="M842,88L979,219L954,24Z" fill="#94d8ba" stroke="#94d8ba"/><path d="M954,24L979,219L1123,103Z" fill="#89d3b1" stroke="#89d3b1"/><path d="M1123,103L979,219L1066,272Z" fill="#79d1aa" stroke="#79d1aa"/><path d="M1123,103L1066,272L1221,232Z" fill="#70cda2" stroke="#70cda2"/><path d="M1123,103L1221,232L1260,29Z" fill="#76ca9e" stroke="#76ca9e"/><path d="M1260,29L1221,232L1371,60Z" fill="#70c696" stroke="#70c696"/><path d="M1371,60L1221,232L1455,201Z" fill="#67c28e" stroke="#67c28e"/><path d="M1371,60L1455,201L1581,29Z" fill="#71bc84" stroke="#71bc84"/><path d="M1581,29L1455,201L1614,261Z" fill="#67b87b" stroke="#67b87b"/><path d="M1581,29L1614,261L1676,220Z" fill="#66b57b" stroke="#66b57b"/><path d="M1581,29L1676,220L1715,74Z" fill="#70b37c" stroke="#70b37c"/><path d="M1715,74L1676,220L1780,342Z" fill="#60af79" stroke="#60af79"/><path d="M-117,201L-119,694L-113,332Z" fill="#aae8cd" stroke="#aae8cd"/><path d="M-117,201L-113,332L37,240Z" fill="#cffaf4" stroke="#cffaf4"/><path d="M37,240L-113,332L36,340Z" fill="#bff3e6" stroke="#bff3e6"/><path d="M37,240L36,340L183,372Z" fill="#b4eede" stroke="#b4eede"/><path d="M37,240L183,372L247,229Z" fill="#b9f2e4" stroke="#b9f2e4"/><path d="M247,229L183,372L364,350Z" fill="#a7ead6" stroke="#a7ead6"/><path d="M247,229L364,350L354,249Z" fill="#aeeede" stroke="#aeeede"/><path d="M354,249L364,350L553,221Z" fill="#a8ebda" stroke="#a8ebda"/><path d="M553,221L364,350L508,425Z" fill="#94e2c8" stroke="#94e2c8"/><path d="M553,221L508,425L701,427Z" fill="#84dbba" stroke="#84dbba"/><path d="M553,221L701,427L686,187Z" fill="#93e2c8" stroke="#93e2c8"/><path d="M686,187L701,427L787,218Z" fill="#8bdec1" stroke="#8bdec1"/><path d="M787,218L701,427L860,396Z" fill="#73d2a9" stroke="#73d2a9"/><path d="M787,218L860,396L979,219Z" fill="#7cd6b2" stroke="#7cd6b2"/><path d="M979,219L860,396L949,385Z" fill="#67cc9e" stroke="#67cc9e"/><path d="M979,219L949,385L1066,272Z" fill="#6bcea2" stroke="#6bcea2"/><path d="M1066,272L949,385L1117,409Z" fill="#56c48d" stroke="#56c48d"/><path d="M1066,272L1117,409L1221,232Z" fill="#5ac691" stroke="#5ac691"/><path d="M1221,232L1117,409L1259,396Z" fill="#49bd80" stroke="#49bd80"/><path d="M1221,232L1259,396L1451,363Z" fill="#44b979" stroke="#44b979"/><path d="M1221,232L1451,363L1455,201Z" fill="#56bf84" stroke="#56bf84"/><path d="M1455,201L1451,363L1614,261Z" fill="#53b674" stroke="#53b674"/><path d="M1614,261L1451,363L1570,429Z" fill="#3fab5c" stroke="#3fab5c"/><path d="M1614,261L1570,429L1780,342Z" fill="#41a65e" stroke="#41a65e"/><path d="M1614,261L1780,342L1676,220Z" fill="#53ad70" stroke="#53ad70"/><path d="M-113,332L-119,694L-97,583Z" fill="#88d8ac" stroke="#88d8ac"/><path d="M-113,332L-97,583L36,340Z" fill="#a3e6ca" stroke="#a3e6ca"/><path d="M36,340L-97,583L103,567Z" fill="#89dab2" stroke="#89dab2"/><path d="M36,340L103,567L183,372Z" fill="#96e0c0" stroke="#96e0c0"/><path d="M183,372L103,567L269,496Z" fill="#82d7af" stroke="#82d7af"/><path d="M183,372L269,496L364,350Z" fill="#8fdebf" stroke="#8fdebf"/><path d="M364,350L269,496L373,540Z" fill="#7cd6ad" stroke="#7cd6ad"/><path d="M364,350L373,540L508,425Z" fill="#7cd6b0" stroke="#7cd6b0"/><path d="M508,425L373,540L545,583Z" fill="#63cb98" stroke="#63cb98"/><path d="M508,425L545,583L701,427Z" fill="#64cb9b" stroke="#64cb9b"/><path d="M701,427L545,583L724,537Z" fill="#53c38a" stroke="#53c38a"/><path d="M701,427L724,537L803,491Z" fill="#52c389" stroke="#52c389"/><path d="M701,427L803,491L860,396Z" fill="#5ac691" stroke="#5ac691"/><path d="M860,396L803,491L971,521Z" fill="#49be80" stroke="#49be80"/><path d="M860,396L971,521L949,385Z" fill="#4dc084" stroke="#4dc084"/><path d="M949,385L971,521L1117,409Z" fill="#43bb7b" stroke="#43bb7b"/><path d="M1117,409L971,521L1088,545Z" fill="#30b268" stroke="#30b268"/><path d="M1117,409L1088,545L1231,509Z" fill="#28ae60" stroke="#28ae60"/><path d="M1117,409L1231,509L1259,396Z" fill="#30b168" stroke="#30b168"/><path d="M1259,396L1231,509L1455,486Z" fill="#21a856" stroke="#21a856"/><path d="M1259,396L1455,486L1451,363Z" fill="#2eab5b" stroke="#2eab5b"/><path d="M1451,363L1455,486L1570,429Z" fill="#2ba44e" stroke="#2ba44e"/><path d="M1570,429L1455,486L1627,578Z" fill="#189836" stroke="#189836"/><path d="M1570,429L1627,578L1784,569Z" fill="#108f2f" stroke="#108f2f"/><path d="M1570,429L1784,569L1780,342Z" fill="#259744" stroke="#259744"/><path d="M-97,583L-119,694L60,654Z" fill="#76c98f" stroke="#76c98f"/><path d="M-97,583L60,654L103,567Z" fill="#71cc97" stroke="#71cc97"/><path d="M103,567L60,654L177,659Z" fill="#6bc78c" stroke="#6bc78c"/><path d="M103,567L177,659L269,496Z" fill="#69cb97" stroke="#69cb97"/><path d="M269,496L177,659L373,540Z" fill="#65ca95" stroke="#65ca95"/><path d="M373,540L177,659L320,725Z" fill="#5ec080" stroke="#5ec080"/><path d="M373,540L320,725L487,716Z" fill="#57bb77" stroke="#57bb77"/><path d="M373,540L487,716L545,583Z" fill="#51bf80" stroke="#51bf80"/><path d="M545,583L487,716L730,709Z" fill="#47b369" stroke="#47b369"/><path d="M545,583L730,709L724,537Z" fill="#3fb771" stroke="#3fb771"/><path d="M724,537L730,709L807,623Z" fill="#36b164" stroke="#36b164"/><path d="M724,537L807,623L803,491Z" fill="#3db875" stroke="#3db875"/><path d="M803,491L807,623L926,619Z" fill="#2fb167" stroke="#2fb167"/><path d="M803,491L926,619L971,521Z" fill="#32b36a" stroke="#32b36a"/><path d="M971,521L926,619L1088,545Z" fill="#24ac5c" stroke="#24ac5c"/><path d="M1088,545L926,619L1134,692Z" fill="#18a248" stroke="#18a248"/><path d="M1088,545L1134,692L1231,509Z" fill="#0fa147" stroke="#0fa147"/><path d="M1231,509L1134,692L1296,680Z" fill="#079835" stroke="#079835"/><path d="M1231,509L1296,680L1455,486Z" fill="#089c3c" stroke="#089c3c"/><path d="M1455,486L1296,680L1406,680Z" fill="#009228" stroke="#009228"/><path d="M1455,486L1406,680L1627,578Z" fill="#019025" stroke="#019025"/><path d="M1627,578L1406,680L1591,695Z" fill="#00850f" stroke="#00850f"/><path d="M1627,578L1591,695L1730,728Z" fill="#007e0a" stroke="#007e0a"/><path d="M1627,578L1730,728L1784,569Z" fill="#007f15" stroke="#007f15"/><path d="M1784,569L1730,728L1776,820Z" fill="#007300" stroke="#007300"/><path d="M-119,694L-49,863L74,772Z" fill="#75b87e" stroke="#75b87e"/><path d="M-119,694L74,772L60,654Z" fill="#72bf7d" stroke="#72bf7d"/><path d="M60,654L74,772L177,659Z" fill="#6bbe7b" stroke="#6bbe7b"/><path d="M177,659L74,772L201,865Z" fill="#68b476" stroke="#68b476"/><path d="M177,659L201,865L320,725Z" fill="#62b472" stroke="#62b472"/><path d="M320,725L201,865L338,781Z" fill="#5ead70" stroke="#5ead70"/><path d="M320,725L338,781L468,782Z" fill="#58ae6c" stroke="#58ae6c"/><path d="M320,725L468,782L487,716Z" fill="#54b06a" stroke="#54b06a"/><path d="M487,716L468,782L716,814Z" fill="#4aa862" stroke="#4aa862"/><path d="M487,716L716,814L730,709Z" fill="#41a65a" stroke="#41a65a"/><path d="M730,709L716,814L844,783Z" fill="#359e4e" stroke="#359e4e"/><path d="M730,709L844,783L807,623Z" fill="#32a44b" stroke="#32a44b"/><path d="M807,623L844,783L926,619Z" fill="#2ba44c" stroke="#2ba44c"/><path d="M926,619L844,783L953,826Z" fill="#269940" stroke="#269940"/><path d="M926,619L953,826L1134,692Z" fill="#1d9836" stroke="#1d9836"/><path d="M1134,692L953,826L1158,787Z" fill="#158d2e" stroke="#158d2e"/><path d="M1134,692L1158,787L1296,680Z" fill="#098e23" stroke="#098e23"/><path d="M1296,680L1158,787L1325,876Z" fill="#03831d" stroke="#03831d"/><path d="M1296,680L1325,876L1418,783Z" fill="#007f14" stroke="#007f14"/><path d="M1296,680L1418,783L1406,680Z" fill="#008511" stroke="#008511"/><path d="M1406,680L1418,783L1591,695Z" fill="#008008" stroke="#008008"/><path d="M1591,695L1418,783L1525,840Z" fill="#007704" stroke="#007704"/><path d="M1591,695L1525,840L1730,728Z" fill="#007400" stroke="#007400"/><path d="M1730,728L1525,840L1776,820Z" fill="#006c00" stroke="#006c00"/><path d="M-49,863L1325,876L201,865Z" fill="#509d67" stroke="#509d67"/><path d="M-49,863L201,865L74,772Z" fill="#6dad79" stroke="#6dad79"/><path d="M201,865L1325,876L953,826Z" fill="#2f8f48" stroke="#2f8f48"/><path d="M201,865L953,826L716,814Z" fill="#449c5c" stroke="#449c5c"/><path d="M201,865L716,814L468,782Z" fill="#52a568" stroke="#52a568"/><path d="M201,865L468,782L338,781Z" fill="#5ba96e" stroke="#5ba96e"/><path d="M716,814L953,826L844,783Z" fill="#2e9547" stroke="#2e9547"/><path d="M953,826L1325,876L1158,787Z" fill="#0e8228" stroke="#0e8228"/><path d="M1325,876L1776,820L1525,840Z" fill="#006c01" stroke="#006c01"/><path d="M1325,876L1525,840L1418,783Z" fill="#00740c" stroke="#00740c"/></g></svg>