<svg width="1600" height="775" xmlns="http://www.w3.org/2000/svg"><g><path d="M-19,-71L-84,12L114,83Z" fill="#f5f3f9" stroke="#f5f3f9"/><path d="M-19,-71L114,83L45,-109Z" fill="#f3f1f8" stroke="#f3f1f8"/><path d="M45,-109L114,83L204,32Z" fill="#eeeef6" stroke="#eeeef6"/><path d="M45,-109L204,32L175,-122Z" fill="#eceef6" stroke="#eceef6"/><path d="M175,-122L204,32L366,-74Z" fill="#e5e9f3" stroke="#e5e9f3"/><path d="M175,-122L366,-74L740,-72Z" fill="#dae2f0" stroke="#dae2f0"/><path d="M175,-122L740,-72L1003,-108Z" fill="#c7d9ea" stroke="#c7d9ea"/><path d="M175,-122L1003,-108L1531,-139Z" fill="#a8cde3" stroke="#a8cde3"/><path d="M366,-74L204,32L425,18Z" fill="#e0e6f2" stroke="#e0e6f2"/><path d="M366,-74L425,18L495,-29Z" fill="#dae2f0" stroke="#dae2f0"/><path d="M366,-74L495,-29L740,-72Z" fill="#d3deed" stroke="#d3deed"/><path d="M495,-29L425,18L582,74Z" fill="#d2dfee" stroke="#d2dfee"/><path d="M495,-29L582,74L676,56Z" fill="#c9daec" stroke="#c9daec"/><path d="M495,-29L676,56L740,-72Z" fill="#c7d9ea" stroke="#c7d9ea"/><path d="M740,-72L676,56L769,3Z" fill="#bcd5e8" stroke="#bcd5e8"/><path d="M740,-72L769,3L796,-61Z" fill="#b8d3e7" stroke="#b8d3e7"/><path d="M740,-72L796,-61L1003,-108Z" fill="#afd0e5" stroke="#afd0e5"/><path d="M796,-61L769,3L924,142Z" fill="#aecfe5" stroke="#aecfe5"/><path d="M796,-61L924,142L1003,-108Z" fill="#a8cde3" stroke="#a8cde3"/><path d="M1003,-108L924,142L1053,64Z" fill="#9ac7e1" stroke="#9ac7e1"/><path d="M1003,-108L1053,64L1120,-70Z" fill="#96c6df" stroke="#96c6df"/><path d="M1003,-108L1120,-70L1321,-102Z" fill="#8cc2dd" stroke="#8cc2dd"/><path d="M1003,-108L1321,-102L1531,-139Z" fill="#80bcd9" stroke="#80bcd9"/><path d="M1120,-70L1053,64L1242,40Z" fill="#8bc2dd" stroke="#8bc2dd"/><path d="M1120,-70L1242,40L1321,-102Z" fill="#83beda" stroke="#83beda"/><path d="M1321,-102L1242,40L1372,4Z" fill="#80bad8" stroke="#80bad8"/><path d="M1321,-102L1372,4L1378,-61Z" fill="#80b8d7" stroke="#80b8d7"/><path d="M1321,-102L1378,-61L1531,-139Z" fill="#80b6d5" stroke="#80b6d5"/><path d="M1378,-61L1372,4L1531,-139Z" fill="#80b5d5" stroke="#80b5d5"/><path d="M1531,-139L1372,4L1533,121Z" fill="#80b3d4" stroke="#80b3d4"/><path d="M1531,-139L1533,121L1698,-28Z" fill="#80aed1" stroke="#80aed1"/><path d="M1698,-28L1533,121L1658,160Z" fill="#76a7cf" stroke="#76a7cf"/><path d="M1698,-28L1658,160L1741,57Z" fill="#79a5ce" stroke="#79a5ce"/><path d="M-84,12L-130,298L4,289Z" fill="#e4ebfa" stroke="#e4ebfa"/><path d="M-84,12L4,289L114,83Z" fill="#e7ebf9" stroke="#e7ebf9"/><path d="M114,83L4,289L155,284Z" fill="#d8e3f7" stroke="#d8e3f7"/><path d="M114,83L155,284L204,32Z" fill="#dde6f5" stroke="#dde6f5"/><path d="M204,32L155,284L452,246Z" fill="#d0def3" stroke="#d0def3"/><path d="M204,32L452,246L425,18Z" fill="#d3e0f1" stroke="#d3e0f1"/><path d="M425,18L452,246L582,74Z" fill="#c9daee" stroke="#c9daee"/><path d="M582,74L452,246L698,192Z" fill="#bbd2ec" stroke="#bbd2ec"/><path d="M582,74L698,192L676,56Z" fill="#b9d3ea" stroke="#b9d3ea"/><path d="M676,56L698,192L776,209Z" fill="#adcde8" stroke="#adcde8"/><path d="M676,56L776,209L769,3Z" fill="#b1d0e8" stroke="#b1d0e8"/><path d="M769,3L776,209L924,142Z" fill="#a4cae5" stroke="#a4cae5"/><path d="M924,142L776,209L969,297Z" fill="#92c1e4" stroke="#92c1e4"/><path d="M924,142L969,297L1053,64Z" fill="#8dc0e1" stroke="#8dc0e1"/><path d="M1053,64L969,297L1156,295Z" fill="#7ebadf" stroke="#7ebadf"/><path d="M1053,64L1156,295L1224,260Z" fill="#75b6dd" stroke="#75b6dd"/><path d="M1053,64L1224,260L1242,40Z" fill="#7bbadc" stroke="#7bbadc"/><path d="M1242,40L1224,260L1372,4Z" fill="#75b6d9" stroke="#75b6d9"/><path d="M1372,4L1224,260L1496,268Z" fill="#6caed7" stroke="#6caed7"/><path d="M1372,4L1496,268L1533,121Z" fill="#71acd4" stroke="#71acd4"/><path d="M1533,121L1496,268L1526,282Z" fill="#67a4d2" stroke="#67a4d2"/><path d="M1533,121L1526,282L1658,160Z" fill="#6ba4d1" stroke="#6ba4d1"/><path d="M1741,57L1658,160L1699,384Z" fill="#6a9dce" stroke="#6a9dce"/><path d="M1741,57L1699,384L1787,586Z" fill="#4b8ec8" stroke="#4b8ec8"/><path d="M-130,298L-143,905L-63,610Z" fill="#7ec2e8" stroke="#7ec2e8"/><path d="M-130,298L-63,610L-52,456Z" fill="#a7d1f0" stroke="#a7d1f0"/><path d="M-130,298L-52,456L-27,304Z" fill="#c3dcf5" stroke="#c3dcf5"/><path d="M-130,298L-27,304L4,289Z" fill="#d2e2f8" stroke="#d2e2f8"/><path d="M4,289L-27,304L51,439Z" fill="#c0daf4" stroke="#c0daf4"/><path d="M4,289L51,439L155,284Z" fill="#bed8f3" stroke="#bed8f3"/><path d="M155,284L51,439L198,399Z" fill="#afd2ef" stroke="#afd2ef"/><path d="M155,284L198,399L419,320Z" fill="#b3d2ef" stroke="#b3d2ef"/><path d="M155,284L419,320L452,246Z" fill="#bcd4f0" stroke="#bcd4f0"/><path d="M447,276L452,246L419,320Z" fill="#b6d0ee" stroke="#b6d0ee"/><path d="M447,276L419,320L577,437Z" fill="#a1c8ea" stroke="#a1c8ea"/><path d="M447,276L577,437L629,342Z" fill="#9ac4e8" stroke="#9ac4e8"/><path d="M447,276L629,342L452,246Z" fill="#afcdec" stroke="#afcdec"/><path d="M452,246L629,342L698,192Z" fill="#afcdec" stroke="#afcdec"/><path d="M698,192L629,342L776,209Z" fill="#a4c8e9" stroke="#a4c8e9"/><path d="M776,209L629,342L819,343Z" fill="#93c1e6" stroke="#93c1e6"/><path d="M776,209L819,343L969,297Z" fill="#8abde3" stroke="#8abde3"/><path d="M969,297L819,343L1011,341Z" fill="#75b5df" stroke="#75b5df"/><path d="M969,297L1011,341L1156,295Z" fill="#6cb2dc" stroke="#6cb2dc"/><path d="M1156,295L1011,341L1103,394Z" fill="#5eacda" stroke="#5eacda"/><path d="M1156,295L1103,394L1215,327Z" fill="#57aad8" stroke="#57aad8"/><path d="M1156,295L1215,327L1224,260Z" fill="#60add9" stroke="#60add9"/><path d="M1224,260L1215,327L1471,401Z" fill="#4fa4d4" stroke="#4fa4d4"/><path d="M1224,260L1471,401L1496,268Z" fill="#55a2d3" stroke="#55a2d3"/><path d="M1496,268L1471,401L1526,282Z" fill="#539cd0" stroke="#539cd0"/><path d="M1526,282L1471,401L1630,353Z" fill="#4a97cd" stroke="#4a97cd"/><path d="M1526,282L1630,353L1658,160Z" fill="#619ed0" stroke="#619ed0"/><path d="M1658,160L1630,353L1699,384Z" fill="#5897cd" stroke="#5897cd"/><path d="M-27,304L-52,456L51,439Z" fill="#b2d5f1" stroke="#b2d5f1"/><path d="M51,439L-52,456L107,516Z" fill="#9acbec" stroke="#9acbec"/><path d="M51,439L107,516L173,462Z" fill="#95c8eb" stroke="#95c8eb"/><path d="M51,439L173,462L198,399Z" fill="#9ecbec" stroke="#9ecbec"/><path d="M198,399L173,462L417,498Z" fill="#91c4e9" stroke="#91c4e9"/><path d="M198,399L417,498L419,320Z" fill="#99c6e9" stroke="#99c6e9"/><path d="M419,320L417,498L577,437Z" fill="#8dc0e6" stroke="#8dc0e6"/><path d="M577,437L417,498L601,481Z" fill="#79b7e2" stroke="#79b7e2"/><path d="M577,437L601,481L629,342Z" fill="#80bae2" stroke="#80bae2"/><path d="M629,342L601,481L819,343Z" fill="#80bae2" stroke="#80bae2"/><path d="M819,343L601,481L855,523Z" fill="#66afdd" stroke="#66afdd"/><path d="M819,343L855,523L1011,341Z" fill="#64afdb" stroke="#64afdb"/><path d="M1011,341L855,523L1036,536Z" fill="#49a4d6" stroke="#49a4d6"/><path d="M1011,341L1036,536L1103,394Z" fill="#4ca5d6" stroke="#4ca5d6"/><path d="M1103,394L1036,536L1208,461Z" fill="#399dd2" stroke="#399dd2"/><path d="M1103,394L1208,461L1215,327Z" fill="#46a3d4" stroke="#46a3d4"/><path d="M1215,327L1208,461L1471,401Z" fill="#3c9dd1" stroke="#3c9dd1"/><path d="M1471,401L1208,461L1468,536Z" fill="#2891cb" stroke="#2891cb"/><path d="M1471,401L1468,536L1522,470Z" fill="#278cc8" stroke="#278cc8"/><path d="M1471,401L1522,470L1630,353Z" fill="#3990ca" stroke="#3990ca"/><path d="M1630,353L1522,470L1699,384Z" fill="#3a8dc8" stroke="#3a8dc8"/><path d="M1699,384L1522,470L1787,586Z" fill="#2482c2" stroke="#2482c2"/><path d="M-52,456L-63,610L107,516Z" fill="#8dc6ea" stroke="#8dc6ea"/><path d="M107,516L-63,610L125,672Z" fill="#75bce5" stroke="#75bce5"/><path d="M107,516L125,672L209,632Z" fill="#6db7e3" stroke="#6db7e3"/><path d="M107,516L209,632L173,462Z" fill="#80bfe6" stroke="#80bfe6"/><path d="M173,462L209,632L417,498Z" fill="#7abbe4" stroke="#7abbe4"/><path d="M417,498L209,632L460,593Z" fill="#67b2e0" stroke="#67b2e0"/><path d="M417,498L460,593L601,481Z" fill="#6db3e0" stroke="#6db3e0"/><path d="M460,593L209,632L352,725Z" fill="#60abdc" stroke="#60abdc"/><path d="M460,593L352,725L609,759Z" fill="#57a1d7" stroke="#57a1d7"/><path d="M460,593L609,759L569,605Z" fill="#52a3d7" stroke="#52a3d7"/><path d="M460,593L569,605L601,481Z" fill="#60addc" stroke="#60addc"/><path d="M601,481L569,605L800,653Z" fill="#4da6d8" stroke="#4da6d8"/><path d="M601,481L800,653L855,523Z" fill="#4aa4d7" stroke="#4aa4d7"/><path d="M855,523L800,653L937,614Z" fill="#309ad2" stroke="#309ad2"/><path d="M855,523L937,614L1036,536Z" fill="#329bd2" stroke="#329bd2"/><path d="M1036,536L937,614L1133,594Z" fill="#2094ce" stroke="#2094ce"/><path d="M1036,536L1133,594L1208,461Z" fill="#2496cf" stroke="#2496cf"/><path d="M1133,594L937,614L1093,757Z" fill="#178bca" stroke="#178bca"/><path d="M1133,594L1093,757L1158,736Z" fill="#0f83c6" stroke="#0f83c6"/><path d="M1133,594L1158,736L1248,642Z" fill="#0985c6" stroke="#0985c6"/><path d="M1133,594L1248,642L1208,461Z" fill="#128ecb" stroke="#128ecb"/><path d="M1208,461L1248,642L1412,610Z" fill="#0a8ac8" stroke="#0a8ac8"/><path d="M1208,461L1412,610L1468,536Z" fill="#148ac8" stroke="#148ac8"/><path d="M1468,536L1412,610L1508,653Z" fill="#027ec1" stroke="#027ec1"/><path d="M1468,536L1508,653L1522,470Z" fill="#0f82c3" stroke="#0f82c3"/><path d="M1522,470L1508,653L1787,586Z" fill="#0b7bbf" stroke="#0b7bbf"/><path d="M1787,586L1508,653L1782,630Z" fill="#0071ba" stroke="#0071ba"/><path d="M-63,610L-143,905L-70,782Z" fill="#7cafdf" stroke="#7cafdf"/><path d="M-63,610L-70,782L21,755Z" fill="#79b2e1" stroke="#79b2e1"/><path d="M-63,610L21,755L125,672Z" fill="#74b4e1" stroke="#74b4e1"/><path d="M125,672L21,755L160,883Z" fill="#70a7db" stroke="#70a7db"/><path d="M125,672L160,883L209,632Z" fill="#6ba9dc" stroke="#6ba9dc"/><path d="M209,632L160,883L352,725Z" fill="#66a4d9" stroke="#66a4d9"/><path d="M352,725L160,883L358,857Z" fill="#639ad4" stroke="#639ad4"/><path d="M352,725L358,857L468,881Z" fill="#5c96d2" stroke="#5c96d2"/><path d="M352,725L468,881L609,759Z" fill="#5796d2" stroke="#5796d2"/><path d="M569,605L609,759L716,714Z" fill="#489ad3" stroke="#489ad3"/><path d="M569,605L716,714L800,653Z" fill="#419bd3" stroke="#419bd3"/><path d="M716,714L609,759L714,908Z" fill="#428dcc" stroke="#428dcc"/><path d="M716,714L714,908L841,817Z" fill="#3986c9" stroke="#3986c9"/><path d="M716,714L841,817L800,653Z" fill="#368fcd" stroke="#368fcd"/><path d="M800,653L841,817L937,614Z" fill="#2e8fcd" stroke="#2e8fcd"/><path d="M937,614L841,817L1050,834Z" fill="#2484c7" stroke="#2484c7"/><path d="M937,614L1050,834L1093,757Z" fill="#1a83c6" stroke="#1a83c6"/><path d="M1158,736L1093,757L1255,853Z" fill="#0a77bf" stroke="#0a77bf"/><path d="M1158,736L1255,853L1248,642Z" fill="#0479c0" stroke="#0479c0"/><path d="M1248,642L1255,853L1444,760Z" fill="#0074bd" stroke="#0074bd"/><path d="M1248,642L1444,760L1412,610Z" fill="#007ac0" stroke="#007ac0"/><path d="M1412,610L1444,760L1508,653Z" fill="#0076be" stroke="#0076be"/><path d="M1508,653L1444,760L1618,865Z" fill="#006ab7" stroke="#006ab7"/><path d="M1508,653L1618,865L1782,630Z" fill="#0069b6" stroke="#0069b6"/><path d="M1782,630L1618,865L1756,851Z" fill="#005eb1" stroke="#005eb1"/><path d="M-70,782L-143,905L87,1025Z" fill="#799dd7" stroke="#799dd7"/><path d="M-70,782L87,1025L21,755Z" fill="#75a1d8" stroke="#75a1d8"/><path d="M21,755L87,1025L160,883Z" fill="#709ad5" stroke="#709ad5"/><path d="M160,883L87,1025L183,971Z" fill="#6d90d0" stroke="#6d90d0"/><path d="M160,883L183,971L337,941Z" fill="#6790cf" stroke="#6790cf"/><path d="M160,883L337,941L358,857Z" fill="#6492d0" stroke="#6492d0"/><path d="M358,857L337,941L458,923Z" fill="#5d8ccd" stroke="#5d8ccd"/><path d="M358,857L458,923L468,881Z" fill="#5a8dce" stroke="#5a8dce"/><path d="M468,881L458,923L714,908Z" fill="#5286ca" stroke="#5286ca"/><path d="M468,881L714,908L609,759Z" fill="#4c8acc" stroke="#4c8acc"/><path d="M841,817L714,908L867,1020Z" fill="#3479c2" stroke="#3479c2"/><path d="M841,817L867,1020L967,950Z" fill="#2a73bf" stroke="#2a73bf"/><path d="M841,817L967,950L1050,834Z" fill="#2377c1" stroke="#2377c1"/><path d="M1050,834L967,950L1166,1026Z" fill="#166bba" stroke="#166bba"/><path d="M1050,834L1166,1026L1255,853Z" fill="#0b6ab9" stroke="#0b6ab9"/><path d="M1050,834L1255,853L1093,757Z" fill="#0e75bf" stroke="#0e75bf"/><path d="M1255,853L1166,1026L1333,1008Z" fill="#005fb4" stroke="#005fb4"/><path d="M1255,853L1333,1008L1444,760Z" fill="#0065b6" stroke="#0065b6"/><path d="M1444,760L1333,1008L1547,915Z" fill="#005eb2" stroke="#005eb2"/><path d="M1444,760L1547,915L1618,865Z" fill="#005fb2" stroke="#005fb2"/><path d="M1618,865L1547,915L1716,1008Z" fill="#0052ab" stroke="#0052ab"/><path d="M1618,865L1716,1008L1756,851Z" fill="#0051ab" stroke="#0051ab"/><path d="M87,1025L1166,1026L867,1020Z" fill="#3f71bf" stroke="#3f71bf"/><path d="M87,1025L867,1020L337,941Z" fill="#5a81c7" stroke="#5a81c7"/><path d="M87,1025L337,941L183,971Z" fill="#698bcd" stroke="#698bcd"/><path d="M337,941L867,1020L458,923Z" fill="#517fc7" stroke="#517fc7"/><path d="M458,923L867,1020L714,908Z" fill="#427bc4" stroke="#427bc4"/><path d="M867,1020L1166,1026L967,950Z" fill="#1d67b9" stroke="#1d67b9"/><path d="M1166,1026L1492,1018L1333,1008Z" fill="#0056af" stroke="#0056af"/><path d="M1333,1008L1492,1018L1547,915Z" fill="#0054ad" stroke="#0054ad"/><path d="M1492,1018L1716,1008L1547,915Z" fill="#004eaa" stroke="#004eaa"/></g></svg>