<svg width="1600" height="775" xmlns="http://www.w3.org/2000/svg"><g><path d="M-87,-125L-116,870L-60,261Z" fill="#c7ddee" stroke="#c7ddee"/><path d="M-87,-125L-60,261L-57,62Z" fill="#f3eff9" stroke="#f3eff9"/><path d="M-87,-125L-57,62L67,-26Z" fill="#f7f2f8" stroke="#f7f2f8"/><path d="M-87,-125L67,-26L182,-29Z" fill="#f2eff7" stroke="#f2eff7"/><path d="M-87,-125L182,-29L381,-59Z" fill="#ebebf5" stroke="#ebebf5"/><path d="M-87,-125L381,-59L708,-123Z" fill="#e0e5f1" stroke="#e0e5f1"/><path d="M-87,-125L708,-123L963,-127Z" fill="#d3deed" stroke="#d3deed"/><path d="M67,-26L-57,62L118,64Z" fill="#efedf7" stroke="#efedf7"/><path d="M67,-26L118,64L182,-29Z" fill="#ededf5" stroke="#ededf5"/><path d="M182,-29L118,64L203,102Z" fill="#e6e8f4" stroke="#e6e8f4"/><path d="M182,-29L203,102L372,64Z" fill="#e0e5f3" stroke="#e0e5f3"/><path d="M182,-29L372,64L381,-59Z" fill="#e1e6f2" stroke="#e1e6f2"/><path d="M381,-59L372,64L484,-58Z" fill="#dbe2f0" stroke="#dbe2f0"/><path d="M381,-59L484,-58L708,-123Z" fill="#d3dfed" stroke="#d3dfed"/><path d="M484,-58L372,64L578,100Z" fill="#d2deee" stroke="#d2deee"/><path d="M484,-58L578,100L709,27Z" fill="#c9daea" stroke="#c9daea"/><path d="M484,-58L709,27L708,-123Z" fill="#c6dae7" stroke="#c6dae7"/><path d="M708,-123L709,27L796,-91Z" fill="#b8d6e1" stroke="#b8d6e1"/><path d="M708,-123L796,-91L963,-127Z" fill="#add2db" stroke="#add2db"/><path d="M796,-91L709,27L791,87Z" fill="#b4d4df" stroke="#b4d4df"/><path d="M796,-91L791,87L933,66Z" fill="#a9d0da" stroke="#a9d0da"/><path d="M796,-91L933,66L963,-127Z" fill="#a4cfd7" stroke="#a4cfd7"/><path d="M963,-127L933,66L1073,-103Z" fill="#98cbd1" stroke="#98cbd1"/><path d="M963,-127L1073,-103L1257,-118Z" fill="#8ac6ca" stroke="#8ac6ca"/><path d="M1073,-103L933,66L1174,35Z" fill="#8fc8cd" stroke="#8fc8cd"/><path d="M1073,-103L1174,35L1257,-118Z" fill="#81c3c6" stroke="#81c3c6"/><path d="M1257,-118L1174,35L1317,86Z" fill="#80c0c1" stroke="#80c0c1"/><path d="M1257,-118L1317,86L1462,-102Z" fill="#80bcbb" stroke="#80bcbb"/><path d="M1257,-118L1462,-102L1565,-95Z" fill="#80b9b6" stroke="#80b9b6"/><path d="M1462,-102L1317,86L1403,99Z" fill="#7db8b8" stroke="#7db8b8"/><path d="M1462,-102L1403,99L1566,21Z" fill="#7fb6b3" stroke="#7fb6b3"/><path d="M1462,-102L1566,21L1565,-95Z" fill="#80b4b0" stroke="#80b4b0"/><path d="M1565,-95L1566,21L1688,-21Z" fill="#80b1ab" stroke="#80b1ab"/><path d="M1688,-21L1566,21L1753,38Z" fill="#7eaea7" stroke="#7eaea7"/><path d="M-57,62L-60,261L108,240Z" fill="#e1e6f8" stroke="#e1e6f8"/><path d="M-57,62L108,240L118,64Z" fill="#e5e8f7" stroke="#e5e8f7"/><path d="M118,64L108,240L203,102Z" fill="#dde4f5" stroke="#dde4f5"/><path d="M203,102L108,240L269,181Z" fill="#d6e0f4" stroke="#d6e0f4"/><path d="M203,102L269,181L372,64Z" fill="#d6e0f2" stroke="#d6e0f2"/><path d="M372,64L269,181L342,236Z" fill="#cfdcf1" stroke="#cfdcf1"/><path d="M372,64L342,236L531,190Z" fill="#c9d9f0" stroke="#c9d9f0"/><path d="M372,64L531,190L578,100Z" fill="#c8d9ee" stroke="#c8d9ee"/><path d="M578,100L531,190L647,256Z" fill="#b8d2ea" stroke="#b8d2ea"/><path d="M578,100L647,256L791,87Z" fill="#b0d0e5" stroke="#b0d0e5"/><path d="M578,100L791,87L709,27Z" fill="#b6d4e3" stroke="#b6d4e3"/><path d="M791,87L647,256L854,173Z" fill="#a2cbdf" stroke="#a2cbdf"/><path d="M791,87L854,173L933,66Z" fill="#9dcad9" stroke="#9dcad9"/><path d="M933,66L854,173L958,241Z" fill="#90c5d6" stroke="#90c5d6"/><path d="M933,66L958,241L1146,212Z" fill="#82c0d0" stroke="#82c0d0"/><path d="M933,66L1146,212L1174,35Z" fill="#80c1cb" stroke="#80c1cb"/><path d="M1174,35L1146,212L1265,204Z" fill="#6fbac4" stroke="#6fbac4"/><path d="M1174,35L1265,204L1317,86Z" fill="#74b9c1" stroke="#74b9c1"/><path d="M1317,86L1265,204L1403,99Z" fill="#71b5bc" stroke="#71b5bc"/><path d="M1403,99L1265,204L1407,250Z" fill="#6bb1ba" stroke="#6bb1ba"/><path d="M1403,99L1407,250L1516,272Z" fill="#69acb5" stroke="#69acb5"/><path d="M1403,99L1516,272L1566,21Z" fill="#71aeb2" stroke="#71aeb2"/><path d="M1566,21L1516,272L1747,226Z" fill="#6da7ab" stroke="#6da7ab"/><path d="M1566,21L1747,226L1753,38Z" fill="#75a8a6" stroke="#75a8a6"/><path d="M1753,38L1747,226L1784,403Z" fill="#679da1" stroke="#679da1"/><path d="M-60,261L-116,870L-71,660Z" fill="#7cc2c9" stroke="#7cc2c9"/><path d="M-60,261L-71,660L-34,534Z" fill="#95ccd9" stroke="#95ccd9"/><path d="M-60,261L-34,534L-16,409Z" fill="#afd5e4" stroke="#afd5e4"/><path d="M-60,261L-16,409L108,240Z" fill="#cbddf1" stroke="#cbddf1"/><path d="M108,240L-16,409L134,359Z" fill="#bcd7eb" stroke="#bcd7eb"/><path d="M108,240L134,359L215,351Z" fill="#bdd6ed" stroke="#bdd6ed"/><path d="M108,240L215,351L269,181Z" fill="#ccdbf4" stroke="#ccdbf4"/><path d="M269,181L215,351L342,236Z" fill="#c8d8f2" stroke="#c8d8f2"/><path d="M342,236L215,351L413,338Z" fill="#b4d2ea" stroke="#b4d2ea"/><path d="M342,236L413,338L531,190Z" fill="#bed3ef" stroke="#bed3ef"/><path d="M531,190L413,338L554,366Z" fill="#accce8" stroke="#accce8"/><path d="M531,190L554,366L647,256Z" fill="#adcce9" stroke="#adcce9"/><path d="M647,256L554,366L648,369Z" fill="#95c4de" stroke="#95c4de"/><path d="M647,256L648,369L861,388Z" fill="#85bfd7" stroke="#85bfd7"/><path d="M647,256L861,388L854,173Z" fill="#91c3dc" stroke="#91c3dc"/><path d="M854,173L861,388L958,241Z" fill="#85bfd6" stroke="#85bfd6"/><path d="M958,241L861,388L1025,317Z" fill="#6fb8cc" stroke="#6fb8cc"/><path d="M958,241L1025,317L1146,212Z" fill="#74bace" stroke="#74bace"/><path d="M1146,212L1025,317L1163,352Z" fill="#60b3c4" stroke="#60b3c4"/><path d="M1146,212L1163,352L1265,204Z" fill="#64b3c5" stroke="#64b3c5"/><path d="M1265,204L1163,352L1285,398Z" fill="#50acb9" stroke="#50acb9"/><path d="M1265,204L1285,398L1407,250Z" fill="#5bacb9" stroke="#5bacb9"/><path d="M1407,250L1285,398L1455,426Z" fill="#44a1ab" stroke="#44a1ab"/><path d="M1407,250L1455,426L1532,353Z" fill="#499fa8" stroke="#499fa8"/><path d="M1407,250L1532,353L1516,272Z" fill="#59a4ae" stroke="#59a4ae"/><path d="M1516,272L1532,353L1747,226Z" fill="#5ba0a8" stroke="#5ba0a8"/><path d="M1747,226L1532,353L1784,403Z" fill="#4d989c" stroke="#4d989c"/><path d="M-16,409L-34,534L63,568Z" fill="#8bc9d5" stroke="#8bc9d5"/><path d="M-16,409L63,568L134,359Z" fill="#9acddc" stroke="#9acddc"/><path d="M134,359L63,568L240,548Z" fill="#86c5d4" stroke="#86c5d4"/><path d="M134,359L240,548L215,351Z" fill="#99cadd" stroke="#99cadd"/><path d="M215,351L240,548L362,508Z" fill="#85c3d4" stroke="#85c3d4"/><path d="M215,351L362,508L413,338Z" fill="#97c8dd" stroke="#97c8dd"/><path d="M413,338L362,508L497,506Z" fill="#81c0d4" stroke="#81c0d4"/><path d="M413,338L497,506L554,366Z" fill="#8cc2da" stroke="#8cc2da"/><path d="M554,366L497,506L648,369Z" fill="#81bed5" stroke="#81bed5"/><path d="M648,369L497,506L691,563Z" fill="#67b5c9" stroke="#67b5c9"/><path d="M648,369L691,563L855,519Z" fill="#56b0c1" stroke="#56b0c1"/><path d="M648,369L855,519L861,388Z" fill="#61b4c6" stroke="#61b4c6"/><path d="M861,388L855,519L1028,533Z" fill="#3fa9b6" stroke="#3fa9b6"/><path d="M861,388L1028,533L1025,317Z" fill="#4dadbc" stroke="#4dadbc"/><path d="M1025,317L1028,533L1137,514Z" fill="#34a5b1" stroke="#34a5b1"/><path d="M1025,317L1137,514L1163,352Z" fill="#41a9b7" stroke="#41a9b7"/><path d="M1163,352L1137,514L1227,512Z" fill="#24a0a9" stroke="#24a0a9"/><path d="M1163,352L1227,512L1285,398Z" fill="#30a2ab" stroke="#30a2ab"/><path d="M1285,398L1227,512L1430,551Z" fill="#1b979c" stroke="#1b979c"/><path d="M1285,398L1430,551L1455,426Z" fill="#24979c" stroke="#24979c"/><path d="M1455,426L1430,551L1624,532Z" fill="#168d8f" stroke="#168d8f"/><path d="M1455,426L1624,532L1532,353Z" fill="#2b9296" stroke="#2b9296"/><path d="M1532,353L1624,532L1692,493Z" fill="#248d8e" stroke="#248d8e"/><path d="M1532,353L1692,493L1784,403Z" fill="#318f90" stroke="#318f90"/><path d="M1784,403L1692,493L1752,675Z" fill="#10817d" stroke="#10817d"/><path d="M1784,403L1752,675L1748,877Z" fill="#00736a" stroke="#00736a"/><path d="M-34,534L-71,660L56,631Z" fill="#77bec7" stroke="#77bec7"/><path d="M-34,534L56,631L63,568Z" fill="#74c0ca" stroke="#74c0ca"/><path d="M63,568L56,631L190,632Z" fill="#6fbac4" stroke="#6fbac4"/><path d="M63,568L190,632L240,548Z" fill="#6bbbc7" stroke="#6bbbc7"/><path d="M240,548L190,632L402,702Z" fill="#64b2be" stroke="#64b2be"/><path d="M240,548L402,702L362,508Z" fill="#60b5c3" stroke="#60b5c3"/><path d="M362,508L402,702L465,694Z" fill="#5badbb" stroke="#5badbb"/><path d="M362,508L465,694L497,506Z" fill="#5ab2c3" stroke="#5ab2c3"/><path d="M497,506L465,694L647,661Z" fill="#53aaba" stroke="#53aaba"/><path d="M497,506L647,661L691,563Z" fill="#49abbb" stroke="#49abbb"/><path d="M691,563L647,661L792,725Z" fill="#3ca0ab" stroke="#3ca0ab"/><path d="M691,563L792,725L855,519Z" fill="#33a1ae" stroke="#33a1ae"/><path d="M855,519L792,725L1027,716Z" fill="#25989f" stroke="#25989f"/><path d="M855,519L1027,716L1028,533Z" fill="#1b9ba3" stroke="#1b9ba3"/><path d="M1028,533L1027,716L1138,704Z" fill="#0f9095" stroke="#0f9095"/><path d="M1028,533L1138,704L1137,514Z" fill="#0a969c" stroke="#0a969c"/><path d="M1137,514L1138,704L1227,512Z" fill="#019499" stroke="#019499"/><path d="M1227,512L1138,704L1280,663Z" fill="#008d8f" stroke="#008d8f"/><path d="M1227,512L1280,663L1430,551Z" fill="#008e90" stroke="#008e90"/><path d="M1430,551L1280,663L1446,678Z" fill="#008584" stroke="#008584"/><path d="M1430,551L1446,678L1538,682Z" fill="#00817e" stroke="#00817e"/><path d="M1430,551L1538,682L1624,532Z" fill="#008381" stroke="#008381"/><path d="M1624,532L1538,682L1752,675Z" fill="#007b74" stroke="#007b74"/><path d="M1624,532L1752,675L1692,493Z" fill="#027f7a" stroke="#027f7a"/><path d="M-71,660L-116,870L79,879Z" fill="#79abab" stroke="#79abab"/><path d="M-71,660L79,879L56,631Z" fill="#75b2b6" stroke="#75b2b6"/><path d="M56,631L79,879L207,812Z" fill="#6fa9ad" stroke="#6fa9ad"/><path d="M56,631L207,812L190,632Z" fill="#6cb0b8" stroke="#6cb0b8"/><path d="M190,632L207,812L402,702Z" fill="#65aab2" stroke="#65aab2"/><path d="M402,702L207,812L424,811Z" fill="#60a1a8" stroke="#60a1a8"/><path d="M402,702L424,811L495,772Z" fill="#599fa8" stroke="#599fa8"/><path d="M402,702L495,772L465,694Z" fill="#58a3ad" stroke="#58a3ad"/><path d="M465,694L495,772L647,661Z" fill="#53a1ae" stroke="#53a1ae"/><path d="M647,661L495,772L735,813Z" fill="#4799a2" stroke="#4799a2"/><path d="M647,661L735,813L792,725Z" fill="#3a979e" stroke="#3a979e"/><path d="M792,725L735,813L842,814Z" fill="#328e93" stroke="#328e93"/><path d="M792,725L842,814L1027,716Z" fill="#258e92" stroke="#258e92"/><path d="M1027,716L842,814L1016,810Z" fill="#1c8889" stroke="#1c8889"/><path d="M1027,716L1016,810L1071,782Z" fill="#128586" stroke="#128586"/><path d="M1027,716L1071,782L1138,704Z" fill="#0d8789" stroke="#0d8789"/><path d="M1138,704L1071,782L1313,829Z" fill="#00807d" stroke="#00807d"/><path d="M1138,704L1313,829L1280,663Z" fill="#00817e" stroke="#00817e"/><path d="M1280,663L1313,829L1446,678Z" fill="#007d79" stroke="#007d79"/><path d="M1446,678L1313,829L1446,826Z" fill="#00756e" stroke="#00756e"/><path d="M1446,678L1446,826L1538,682Z" fill="#007770" stroke="#007770"/><path d="M1538,682L1446,826L1618,842Z" fill="#006f65" stroke="#006f65"/><path d="M1538,682L1618,842L1752,675Z" fill="#007066" stroke="#007066"/><path d="M1752,675L1618,842L1748,877Z" fill="#006659" stroke="#006659"/><path d="M-116,870L-103,990L79,879Z" fill="#79a09c" stroke="#79a09c"/><path d="M79,879L-103,990L63,1022Z" fill="#759994" stroke="#759994"/><path d="M79,879L63,1022L201,995Z" fill="#6f9591" stroke="#6f9591"/><path d="M79,879L201,995L207,812Z" fill="#6c9b9b" stroke="#6c9b9b"/><path d="M207,812L201,995L429,969Z" fill="#649494" stroke="#649494"/><path d="M207,812L429,969L424,811Z" fill="#5f979b" stroke="#5f979b"/><path d="M424,811L429,969L539,931Z" fill="#589094" stroke="#589094"/><path d="M424,811L539,931L495,772Z" fill="#56959c" stroke="#56959c"/><path d="M495,772L539,931L650,936Z" fill="#508f94" stroke="#508f94"/><path d="M495,772L650,936L735,813Z" fill="#479095" stroke="#479095"/><path d="M735,813L650,936L801,932Z" fill="#3a8687" stroke="#3a8687"/><path d="M735,813L801,932L842,814Z" fill="#328789" stroke="#328789"/><path d="M842,814L801,932L943,1013Z" fill="#297d7b" stroke="#297d7b"/><path d="M842,814L943,1013L1016,810Z" fill="#1f7f7d" stroke="#1f7f7d"/><path d="M1016,810L943,1013L1179,1028Z" fill="#11736c" stroke="#11736c"/><path d="M1016,810L1179,1028L1226,972Z" fill="#057068" stroke="#057068"/><path d="M1016,810L1226,972L1071,782Z" fill="#097a75" stroke="#097a75"/><path d="M1071,782L1226,972L1313,829Z" fill="#00756f" stroke="#00756f"/><path d="M1313,829L1226,972L1484,967Z" fill="#00695d" stroke="#00695d"/><path d="M1313,829L1484,967L1446,826Z" fill="#006b60" stroke="#006b60"/><path d="M1446,826L1484,967L1572,941Z" fill="#006355" stroke="#006355"/><path d="M1446,826L1572,941L1618,842Z" fill="#006658" stroke="#006658"/><path d="M1618,842L1572,941L1677,952Z" fill="#005e4d" stroke="#005e4d"/><path d="M1618,842L1677,952L1748,877Z" fill="#005e4d" stroke="#005e4d"/><path d="M63,1022L1179,1028L943,1013Z" fill="#3a7975" stroke="#3a7975"/><path d="M63,1022L943,1013L201,995Z" fill="#5c8786" stroke="#5c8786"/><path d="M201,995L943,1013L429,969Z" fill="#548486" stroke="#548486"/><path d="M429,969L943,1013L650,936Z" fill="#418080" stroke="#418080"/><path d="M429,969L650,936L539,931Z" fill="#52888c" stroke="#52888c"/><path d="M650,936L943,1013L801,932Z" fill="#317c7a" stroke="#317c7a"/><path d="M1179,1028L1677,952L1484,967Z" fill="#005e4e" stroke="#005e4e"/><path d="M1179,1028L1484,967L1226,972Z" fill="#006457" stroke="#006457"/><path d="M1484,967L1677,952L1572,941Z" fill="#005c4b" stroke="#005c4b"/></g></svg>