<svg width="1600" height="732" xmlns="http://www.w3.org/2000/svg"><g><path d="M-35,-103L-128,259L-57,130Z" fill="#fbfbfb" stroke="#fbfbfb"/><path d="M-35,-103L-57,130L20,69Z" fill="#fbfbfb" stroke="#fbfbfb"/><path d="M-35,-103L20,69L41,-32Z" fill="#fbfbfb" stroke="#fbfbfb"/><path d="M-35,-103L41,-32L262,-111Z" fill="#f5f5f5" stroke="#f5f5f5"/><path d="M-35,-103L262,-111L659,-129Z" fill="#e7e7e7" stroke="#e7e7e7"/><path d="M41,-32L20,69L178,18Z" fill="#f5f5f5" stroke="#f5f5f5"/><path d="M41,-32L178,18L262,-111Z" fill="#f0f0f0" stroke="#f0f0f0"/><path d="M262,-111L178,18L401,-17Z" fill="#e8e8e8" stroke="#e8e8e8"/><path d="M262,-111L401,-17L574,-84Z" fill="#dedede" stroke="#dedede"/><path d="M262,-111L574,-84L659,-129Z" fill="#d7d7d7" stroke="#d7d7d7"/><path d="M401,-17L178,18L425,30Z" fill="#e4e4e4" stroke="#e4e4e4"/><path d="M401,-17L425,30L555,18Z" fill="#d9d9d9" stroke="#d9d9d9"/><path d="M401,-17L555,18L574,-84Z" fill="#d6d6d6" stroke="#d6d6d6"/><path d="M574,-84L555,18L659,-129Z" fill="#cecece" stroke="#cecece"/><path d="M659,-129L555,18L649,113Z" fill="#cccccc" stroke="#cccccc"/><path d="M659,-129L649,113L860,61Z" fill="#c4c4c4" stroke="#c4c4c4"/><path d="M659,-129L860,61L872,-47Z" fill="#bebebe" stroke="#bebebe"/><path d="M659,-129L872,-47L954,-68Z" fill="#bcbcbc" stroke="#bcbcbc"/><path d="M659,-129L954,-68L1134,-108Z" fill="#b5b5b5" stroke="#b5b5b5"/><path d="M659,-129L1134,-108L1298,-127Z" fill="#aaaaaa" stroke="#aaaaaa"/><path d="M872,-47L860,61L954,-68Z" fill="#b6b6b6" stroke="#b6b6b6"/><path d="M954,-68L860,61L953,108Z" fill="#b3b3b3" stroke="#b3b3b3"/><path d="M954,-68L953,108L1089,18Z" fill="#adadad" stroke="#adadad"/><path d="M954,-68L1089,18L1134,-108Z" fill="#a8a8a8" stroke="#a8a8a8"/><path d="M1134,-108L1089,18L1275,33Z" fill="#9d9d9d" stroke="#9d9d9d"/><path d="M1134,-108L1275,33L1298,-127Z" fill="#979797" stroke="#979797"/><path d="M1298,-127L1275,33L1376,-101Z" fill="#8f8f8f" stroke="#8f8f8f"/><path d="M1298,-127L1376,-101L1539,-75Z" fill="#868686" stroke="#868686"/><path d="M1298,-127L1539,-75L1733,-55Z" fill="#808080" stroke="#808080"/><path d="M1376,-101L1275,33L1419,29Z" fill="#8b8b8b" stroke="#8b8b8b"/><path d="M1376,-101L1419,29L1539,-75Z" fill="#828282" stroke="#828282"/><path d="M1539,-75L1419,29L1579,116Z" fill="#7f7f7f" stroke="#7f7f7f"/><path d="M1539,-75L1579,116L1733,-55Z" fill="#808080" stroke="#808080"/><path d="M1733,-55L1579,116L1774,104Z" fill="#7d7d7d" stroke="#7d7d7d"/><path d="M-57,130L-128,259L-25,345Z" fill="#e4e4e4" stroke="#e4e4e4"/><path d="M-57,130L-25,345L88,271Z" fill="#dfdfdf" stroke="#dfdfdf"/><path d="M-57,130L88,271L20,69Z" fill="#f2f2f2" stroke="#f2f2f2"/><path d="M20,69L88,271L169,166Z" fill="#eaeaea" stroke="#eaeaea"/><path d="M20,69L169,166L178,18Z" fill="#f0f0f0" stroke="#f0f0f0"/><path d="M178,18L169,166L425,30Z" fill="#e7e7e7" stroke="#e7e7e7"/><path d="M425,30L169,166L373,245Z" fill="#e0e0e0" stroke="#e0e0e0"/><path d="M425,30L373,245L502,171Z" fill="#d6d6d6" stroke="#d6d6d6"/><path d="M425,30L502,171L555,18Z" fill="#d4d4d4" stroke="#d4d4d4"/><path d="M555,18L502,171L649,113Z" fill="#cdcdcd" stroke="#cdcdcd"/><path d="M649,113L502,171L645,231Z" fill="#c3c3c3" stroke="#c3c3c3"/><path d="M649,113L645,231L792,192Z" fill="#b9b9b9" stroke="#b9b9b9"/><path d="M649,113L792,192L860,61Z" fill="#bcbcbc" stroke="#bcbcbc"/><path d="M860,61L792,192L953,108Z" fill="#b4b4b4" stroke="#b4b4b4"/><path d="M953,108L792,192L1001,219Z" fill="#a9a9a9" stroke="#a9a9a9"/><path d="M953,108L1001,219L1134,171Z" fill="#a0a0a0" stroke="#a0a0a0"/><path d="M953,108L1134,171L1089,18Z" fill="#a4a4a4" stroke="#a4a4a4"/><path d="M1089,18L1134,171L1275,33Z" fill="#9a9a9a" stroke="#9a9a9a"/><path d="M1275,33L1134,171L1311,173Z" fill="#919191" stroke="#919191"/><path d="M1275,33L1311,173L1419,29Z" fill="#8a8a8a" stroke="#8a8a8a"/><path d="M1419,29L1311,173L1368,197Z" fill="#848484" stroke="#848484"/><path d="M1419,29L1368,197L1579,116Z" fill="#7d7d7d" stroke="#7d7d7d"/><path d="M1579,116L1368,197L1531,239Z" fill="#727272" stroke="#727272"/><path d="M1579,116L1531,239L1723,273Z" fill="#6c6c6c" stroke="#6c6c6c"/><path d="M1579,116L1723,273L1774,104Z" fill="#767676" stroke="#767676"/><path d="M1774,104L1723,273L1769,424Z" fill="#5f5f5f" stroke="#5f5f5f"/><path d="M-128,259L-129,706L-43,520Z" fill="#adadad" stroke="#adadad"/><path d="M-128,259L-43,520L-25,345Z" fill="#c8c8c8" stroke="#c8c8c8"/><path d="M88,271L-25,345L127,384Z" fill="#c8c8c8" stroke="#c8c8c8"/><path d="M88,271L127,384L172,377Z" fill="#c2c2c2" stroke="#c2c2c2"/><path d="M88,271L172,377L169,166Z" fill="#d0d0d0" stroke="#d0d0d0"/><path d="M169,166L172,377L373,245Z" fill="#cccccc" stroke="#cccccc"/><path d="M373,245L172,377L387,333Z" fill="#bbbbbb" stroke="#bbbbbb"/><path d="M373,245L387,333L529,362Z" fill="#b2b2b2" stroke="#b2b2b2"/><path d="M373,245L529,362L502,171Z" fill="#bbbbbb" stroke="#bbbbbb"/><path d="M502,171L529,362L645,231Z" fill="#b4b4b4" stroke="#b4b4b4"/><path d="M645,231L529,362L648,358Z" fill="#a3a3a3" stroke="#a3a3a3"/><path d="M645,231L648,358L792,192Z" fill="#a7a7a7" stroke="#a7a7a7"/><path d="M792,192L648,358L782,423Z" fill="#969696" stroke="#969696"/><path d="M792,192L782,423L973,373Z" fill="#8d8d8d" stroke="#8d8d8d"/><path d="M792,192L973,373L1001,219Z" fill="#959595" stroke="#959595"/><path d="M1001,219L973,373L1090,336Z" fill="#828282" stroke="#828282"/><path d="M1001,219L1090,336L1134,171Z" fill="#8b8b8b" stroke="#8b8b8b"/><path d="M1134,171L1090,336L1284,381Z" fill="#767676" stroke="#767676"/><path d="M1134,171L1284,381L1311,173Z" fill="#7b7b7b" stroke="#7b7b7b"/><path d="M1311,173L1284,381L1368,197Z" fill="#727272" stroke="#727272"/><path d="M1368,197L1284,381L1391,433Z" fill="#5d5d5d" stroke="#5d5d5d"/><path d="M1368,197L1391,433L1531,239Z" fill="#5e5e5e" stroke="#5e5e5e"/><path d="M1531,239L1391,433L1610,382Z" fill="#4e4e4e" stroke="#4e4e4e"/><path d="M1531,239L1610,382L1723,273Z" fill="#595959" stroke="#595959"/><path d="M1723,273L1610,382L1769,424Z" fill="#4c4c4c" stroke="#4c4c4c"/><path d="M-25,345L-43,520L38,510Z" fill="#b2b2b2" stroke="#b2b2b2"/><path d="M-25,345L38,510L127,384Z" fill="#b9b9b9" stroke="#b9b9b9"/><path d="M127,384L38,510L214,510Z" fill="#a7a7a7" stroke="#a7a7a7"/><path d="M127,384L214,510L172,377Z" fill="#aeaeae" stroke="#aeaeae"/><path d="M172,377L214,510L387,333Z" fill="#acacac" stroke="#acacac"/><path d="M387,333L214,510L371,529Z" fill="#9c9c9c" stroke="#9c9c9c"/><path d="M387,333L371,529L488,504Z" fill="#959595" stroke="#959595"/><path d="M387,333L488,504L529,362Z" fill="#9d9d9d" stroke="#9d9d9d"/><path d="M529,362L488,504L648,358Z" fill="#949494" stroke="#949494"/><path d="M648,358L488,504L720,531Z" fill="#828282" stroke="#828282"/><path d="M648,358L720,531L782,423Z" fill="#818181" stroke="#818181"/><path d="M782,423L720,531L769,547Z" fill="#6d6d6d" stroke="#6d6d6d"/><path d="M782,423L769,547L918,473Z" fill="#6d6d6d" stroke="#6d6d6d"/><path d="M782,423L918,473L973,373Z" fill="#767676" stroke="#767676"/><path d="M973,373L918,473L1159,492Z" fill="#666666" stroke="#666666"/><path d="M973,373L1159,492L1090,336Z" fill="#6a6a6a" stroke="#6a6a6a"/><path d="M1090,336L1159,492L1284,381Z" fill="#5f5f5f" stroke="#5f5f5f"/><path d="M1284,381L1159,492L1277,565Z" fill="#484848" stroke="#484848"/><path d="M1284,381L1277,565L1391,433Z" fill="#454545" stroke="#454545"/><path d="M1391,433L1277,565L1404,507Z" fill="#363636" stroke="#363636"/><path d="M1391,433L1404,507L1520,507Z" fill="#333333" stroke="#333333"/><path d="M1391,433L1520,507L1610,382Z" fill="#3b3b3b" stroke="#3b3b3b"/><path d="M1610,382L1520,507L1707,524Z" fill="#333333" stroke="#333333"/><path d="M1610,382L1707,524L1769,424Z" fill="#3a3a3a" stroke="#3a3a3a"/><path d="M1769,424L1707,524L1707,675Z" fill="#222222" stroke="#222222"/><path d="M1769,424L1707,675L1716,798Z" fill="#0a0a0a" stroke="#0a0a0a"/><path d="M-43,520L-129,706L118,674Z" fill="#878787" stroke="#878787"/><path d="M-43,520L118,674L38,510Z" fill="#949494" stroke="#949494"/><path d="M38,510L118,674L214,510Z" fill="#8f8f8f" stroke="#8f8f8f"/><path d="M214,510L118,674L225,644Z" fill="#7f7f7f" stroke="#7f7f7f"/><path d="M214,510L225,644L371,529Z" fill="#868686" stroke="#868686"/><path d="M371,529L225,644L315,690Z" fill="#747474" stroke="#747474"/><path d="M371,529L315,690L468,725Z" fill="#676767" stroke="#676767"/><path d="M371,529L468,725L488,504Z" fill="#727272" stroke="#727272"/><path d="M488,504L468,725L701,726Z" fill="#585858" stroke="#585858"/><path d="M488,504L701,726L720,531Z" fill="#616161" stroke="#616161"/><path d="M720,531L701,726L769,547Z" fill="#565656" stroke="#565656"/><path d="M769,547L701,726L811,655Z" fill="#494949" stroke="#494949"/><path d="M769,547L811,655L918,473Z" fill="#595959" stroke="#595959"/><path d="M918,473L811,655L958,731Z" fill="#444444" stroke="#444444"/><path d="M918,473L958,731L1101,724Z" fill="#363636" stroke="#363636"/><path d="M918,473L1101,724L1159,492Z" fill="#444444" stroke="#444444"/><path d="M1159,492L1101,724L1277,565Z" fill="#313131" stroke="#313131"/><path d="M1277,565L1101,724L1322,674Z" fill="#1c1c1c" stroke="#1c1c1c"/><path d="M1277,565L1322,674L1404,507Z" fill="#242424" stroke="#242424"/><path d="M1404,507L1322,674L1373,725Z" fill="#141414" stroke="#141414"/><path d="M1404,507L1373,725L1552,662Z" fill="#0d0d0d" stroke="#0d0d0d"/><path d="M1404,507L1552,662L1520,507Z" fill="#1d1d1d" stroke="#1d1d1d"/><path d="M1520,507L1552,662L1707,524Z" fill="#1c1c1c" stroke="#1c1c1c"/><path d="M1707,524L1552,662L1707,675Z" fill="#0d0d0d" stroke="#0d0d0d"/><path d="M-129,706L-49,840L118,674Z" fill="#7d7d7d" stroke="#7d7d7d"/><path d="M118,674L-49,840L108,874Z" fill="#787878" stroke="#787878"/><path d="M118,674L108,874L236,868Z" fill="#717171" stroke="#717171"/><path d="M118,674L236,868L225,644Z" fill="#6f6f6f" stroke="#6f6f6f"/><path d="M225,644L236,868L315,690Z" fill="#6a6a6a" stroke="#6a6a6a"/><path d="M315,690L236,868L398,851Z" fill="#666666" stroke="#666666"/><path d="M315,690L398,851L468,725Z" fill="#606060" stroke="#606060"/><path d="M468,725L398,851L583,829Z" fill="#585858" stroke="#585858"/><path d="M468,725L583,829L701,726Z" fill="#505050" stroke="#505050"/><path d="M701,726L583,829L709,855Z" fill="#494949" stroke="#494949"/><path d="M701,726L709,855L840,771Z" fill="#424242" stroke="#424242"/><path d="M701,726L840,771L811,655Z" fill="#404040" stroke="#404040"/><path d="M811,655L840,771L958,731Z" fill="#393939" stroke="#393939"/><path d="M958,731L840,771L944,824Z" fill="#353535" stroke="#353535"/><path d="M958,731L944,824L1101,724Z" fill="#2e2e2e" stroke="#2e2e2e"/><path d="M1101,724L944,824L1109,852Z" fill="#292929" stroke="#292929"/><path d="M1101,724L1109,852L1329,847Z" fill="#1c1c1c" stroke="#1c1c1c"/><path d="M1101,724L1329,847L1322,674Z" fill="#161616" stroke="#161616"/><path d="M1322,674L1329,847L1373,725Z" fill="#0d0d0d" stroke="#0d0d0d"/><path d="M1373,725L1329,847L1429,787Z" fill="#090909" stroke="#090909"/><path d="M1373,725L1429,787L1552,662Z" fill="#020202" stroke="#020202"/><path d="M1552,662L1429,787L1518,867Z" fill="#000000" stroke="#000000"/><path d="M1552,662L1518,867L1716,798Z" fill="#000000" stroke="#000000"/><path d="M1552,662L1716,798L1707,675Z" fill="#000000" stroke="#000000"/><path d="M108,874L1518,867L236,868Z" fill="#4d4d4d" stroke="#4d4d4d"/><path d="M236,868L1518,867L709,855Z" fill="#3d3d3d" stroke="#3d3d3d"/><path d="M236,868L709,855L398,851Z" fill="#5b5b5b" stroke="#5b5b5b"/><path d="M398,851L709,855L583,829Z" fill="#525252" stroke="#525252"/><path d="M709,855L1518,867L1109,852Z" fill="#232323" stroke="#232323"/><path d="M709,855L1109,852L944,824Z" fill="#353535" stroke="#353535"/><path d="M709,855L944,824L840,771Z" fill="#3c3c3c" stroke="#3c3c3c"/><path d="M1109,852L1518,867L1329,847Z" fill="#0f0f0f" stroke="#0f0f0f"/><path d="M1329,847L1518,867L1429,787Z" fill="#050505" stroke="#050505"/></g></svg>